<?xml version="1.0" encoding="UTF-8" standalone="no"?>
<svg
   viewbox="0 0 1000 1000"
   version="1.1"
   id="svg82"
   xmlns="http://www.w3.org/2000/svg"
   xmlns:svg="http://www.w3.org/2000/svg">
  <defs
     id="defs2">
    <clippath
       id="clip-path">
      <circle
         cx="500"
         cy="500"
         r="500" />
    </clippath>
  </defs>
  <g
     id="g12728">
    <circle
       style="fill:#218cdd;fill-opacity:1;stroke-width:6.43382"
       id="path12518"
       cx="500"
       cy="500"
       r="500" />
    <path
       id="circle4"
       clip-path="none"
       style="fill:#ffffff;fill-opacity:1"
       class="earth"
       d="M 84.6875 222.58008 A 500 500 0 0 0 60.337891 264.53906 L 179.36719 264.53906 C 189.06219 264.53906 196.86719 256.73406 196.86719 247.03906 L 196.86719 240.08008 C 196.86719 230.38508 189.06219 222.58008 179.36719 222.58008 L 84.6875 222.58008 z " />
    <rect
       x="503.1171"
       y="451.85999"
       width="168.17999"
       height="73.800003"
       rx="30.780001"
       fill="#46ce59"
       id="rect22" />
    <rect
       x="419.19711"
       y="774.33002"
       width="168.17999"
       height="73.800003"
       rx="30.780001"
       fill="#46ce59"
       id="rect24" />
    <path
       d="m 832.51711,269 h -115.93 v -48.42 h 22.34 a 73.57,73.57 0 0 0 73.56,-73.58 v 0 a 73.57,73.57 0 0 0 -73.56,-73.56 h -269.66 a 73.56,73.56 0 0 0 -73.56,73.56 v 0 a 73.56,73.56 0 0 0 73.56,73.57 h 188.58 V 269 h -36.9 a 59.1,59.1 0 0 0 -59.09,59.1 v 0 a 59.1,59.1 0 0 0 59.09,59.09 h 211.57 a 59.1,59.1 0 0 0 59.09,-59.09 v 0 a 59.1,59.1 0 0 0 -59.09,-59.1 z"
       fill="#46ce59"
       id="path28" />
    <path
       id="path12239"
       style="fill:#ffffff;fill-opacity:1;stroke-width:4.15131"
       d="M 764.55273 173.42969 A 49.15 49.15 0 0 0 715.40234 222.58008 A 49.16 49.16 0 0 0 764.55273 271.73047 L 830.49219 271.73047 L 830.49219 311.28906 L 630.32227 311.28906 L 630.32227 271.73047 L 644.10156 271.73047 A 12.59 12.59 0 1 0 644.10156 246.55078 L 582.94336 246.55078 A 12.59 12.59 0 0 0 582.94336 271.73047 L 596.72266 271.73047 L 596.72266 311.28906 L 594.98242 311.28906 A 34.16 34.16 0 0 0 560.82227 345.44922 A 34.16 34.16 0 0 0 594.98242 379.61914 L 943.7832 379.61914 A 34.17 34.17 0 0 0 977.36133 351.50195 A 500 500 0 0 0 966.48438 320.44141 A 34.17 34.17 0 0 0 943.7832 311.28906 L 864.0625 311.28906 L 864.0625 271.73047 L 928.79297 271.73047 A 49.15 49.15 0 0 0 943.45312 269.25195 A 500 500 0 0 0 878.41992 173.42969 L 764.55273 173.42969 z " />
    <path
       id="path30"
       d="M 31.716797 328.40039 A 500 500 0 0 0 0 500 A 500 500 0 0 0 1.4140625 519.76953 L 163.36914 519.76953 L 163.36914 559 L 106.36914 559 A 73.28 73.28 0 0 0 33.148438 632.25 A 73.28 73.28 0 0 0 106.42969 705.5293 L 277.93945 705.5293 A 73.28 73.28 0 0 0 351.21875 632.25 A 73.28 73.28 0 0 0 277.93945 559 L 222.14844 559 L 222.14844 519.76953 L 311.07812 519.76953 A 95.69 95.69 0 0 0 406.76953 424.08008 A 95.69 95.69 0 0 0 311.03906 328.40039 L 31.716797 328.40039 z "
       style="fill:#46ce59;fill-opacity:1" />
    <path
       id="path32"
       d="m 764.49414,716 c -40.47088,3.9e-4 -73.27891,32.80842 -73.2793,73.2793 -6.9e-4,40.47164 32.80766,73.28086 73.2793,73.28125 H 777.125 v 36.84961 H 666.48438 c -20.10881,-9e-5 -36.41024,16.30134 -36.41016,36.41015 0.21034,18.47192 14.22042,33.8589 32.5918,35.79492 64.06116,-21.97941 122.98923,-56.74433 173.58954,-103.66718 50.60031,-46.92286 86.80152,-96.14302 113.31671,-150.6375 -4.46904,-0.85687 -9.00818,-1.29562 -13.5586,-1.31055 z"
       style="fill:#46ce59;fill-opacity:1" />
    <rect
       x="266.42712"
       y="843.56"
       width="86.309998"
       height="41.959999"
       rx="17.5"
       fill="#ffffff"
       id="rect36" />
    <rect
       x="320.37711"
       y="742.85999"
       width="147.45"
       height="71.68"
       rx="29.9"
       fill="#ffffff"
       id="rect38" />
    <rect
       x="51.847107"
       y="470.73001"
       width="128.27"
       height="62.34"
       rx="26"
       fill="#ffffff"
       id="rect40" />
    <rect
       x="284.3671"
       y="337.66"
       width="86.339996"
       height="41.959999"
       rx="17.5"
       fill="#ffffff"
       id="rect42" />
    <rect
       x="204.04712"
       y="115.88"
       width="116.32"
       height="56.529999"
       rx="23.58"
       fill="#ffffff"
       id="rect46" />
    <path
       id="rect50"
       d="M 910.10742 543.85938 C 894.04142 543.85938 881.10742 556.79337 881.10742 572.85938 L 881.10742 584.39062 C 881.10742 600.45663 894.04142 613.39062 910.10742 613.39062 L 985.72266 613.39062 A 500 500 0 0 0 996.86328 543.85938 L 910.10742 543.85938 z "
       style="fill:#ffffff" />
  </g>
</svg>
