<?xml version="1.0" encoding="UTF-8"?>
<svg width="1e3" height="1e3" version="1.1" viewbox="0 0 1000 1000" xmlns="http://www.w3.org/2000/svg">
 <circle cx="500" cy="500" r="500" fill="#218cdd" stroke-width="6.4338"/>
 <path class="earth" d="m84.688 222.58a500 500 0 0 0-24.35 41.959h119.03c9.695 0 17.5-7.805 17.5-17.5v-6.959c0-9.695-7.805-17.5-17.5-17.5z" fill="#fff"/>
 <g fill="#46ce59">
  <rect x="503.12" y="451.86" width="168.18" height="73.8" rx="30.78"/>
  <rect x="419.2" y="774.33" width="168.18" height="73.8" rx="30.78"/>
  <path d="m832.52 269h-115.93v-48.42h22.34a73.57 73.57 0 0 0 73.56-73.58 73.57 73.57 0 0 0-73.56-73.56h-269.66a73.56 73.56 0 0 0-73.56 73.56 73.56 73.56 0 0 0 73.56 73.57h188.58v48.43h-36.9a59.1 59.1 0 0 0-59.09 59.1 59.1 59.1 0 0 0 59.09 59.09h211.57a59.1 59.1 0 0 0 59.09-59.09 59.1 59.1 0 0 0-59.09-59.1z"/>
 </g>
 <g>
  <path d="m764.55 173.43a49.15 49.15 0 0 0-49.15 49.15 49.16 49.16 0 0 0 49.15 49.15h65.939v39.559h-200.17v-39.559h13.779a12.59 12.59 0 1 0 0-25.18h-61.158a12.59 12.59 0 0 0 0 25.18h13.779v39.559h-1.7402a34.16 34.16 0 0 0-34.16 34.16 34.16 34.16 0 0 0 34.16 34.17h348.8a34.17 34.17 0 0 0 33.578-28.117 500 500 0 0 0-10.877-31.061 34.17 34.17 0 0 0-22.701-9.1524h-79.721v-39.559h64.73a49.15 49.15 0 0 0 14.66-2.4785 500 500 0 0 0-65.033-95.822z" fill="#fff" stroke-width="4.1513"/>
  <path d="m31.717 328.4a500 500 0 0 0-31.717 171.6 500 500 0 0 0 1.4141 19.77h161.96v39.23h-57a73.28 73.28 0 0 0-73.221 73.25 73.28 73.28 0 0 0 73.281 73.279h171.51a73.28 73.28 0 0 0 73.279-73.279 73.28 73.28 0 0 0-73.279-73.25h-55.791v-39.23h88.93a95.69 95.69 0 0 0 95.691-95.689 95.69 95.69 0 0 0-95.73-95.68z" fill="#46ce59"/>
  <path d="m764.49 716c-40.471 3.9e-4 -73.279 32.808-73.279 73.279-6.9e-4 40.472 32.808 73.281 73.279 73.281h12.631v36.85h-110.64c-20.109-9e-5 -36.41 16.301-36.41 36.41 0.21034 18.472 14.22 33.859 32.592 35.795 64.061-21.979 122.99-56.744 173.59-103.67 50.6-46.923 86.802-96.143 113.32-150.64-4.469-0.85687-9.0082-1.2956-13.559-1.3106z" fill="#46ce59"/>
 </g>
 <g fill="#fff">
  <rect x="266.43" y="843.56" width="86.31" height="41.96" rx="17.5"/>
  <rect x="320.38" y="742.86" width="147.45" height="71.68" rx="29.9"/>
  <rect x="51.847" y="470.73" width="128.27" height="62.34" rx="26"/>
  <rect x="284.37" y="337.66" width="86.34" height="41.96" rx="17.5"/>
  <rect x="204.05" y="115.88" width="116.32" height="56.53" rx="23.58"/>
  <path d="m910.11 543.86c-16.066 0-29 12.934-29 29v11.531c0 16.066 12.934 29 29 29h75.615a500 500 0 0 0 11.141-69.531z"/>
 </g>
</svg>
