<?xml version="1.0" encoding="UTF-8"?>
<!-- Generator: Adobe Illustrator 19.0.0, SVG Export Plug-In . SVG Version: 6.00 Build 0)  -->
<svg width="344.78" height="332.5" version="1.1" viewBox="0 0 344.78 332.5" xml:space="preserve" xmlns="http://www.w3.org/2000/svg">


<rect x="99.589" y="179.42" width="169.87" height="12.067" fill="#ffedb5"/>
<g transform="translate(-83.61,-77.683)" fill="#ff7f4f">
	<path d="m227.62 400.29c0 5.461 4.427 9.888 9.888 9.888h36.974c5.461 0 9.888-4.427 9.888-9.888v-20.208h-56.751v20.208z"/>
	<path d="m255.43 380.09v30.096h19.061c5.461 0 9.888-4.427 9.888-9.888v-20.208z"/>
</g>
<path d="m88.405 246.12h-70.723c-9.766 0-17.682-7.916-17.682-17.682v-85.973c0-9.766 7.916-17.682 17.682-17.682h70.723c9.766 0 17.682 7.916 17.682 17.682v85.973c-2e-3 9.766-7.918 17.682-17.682 17.682z" fill="#38c6d9"/><path d="m327.1 246.12h-70.723c-9.766 0-17.682-7.916-17.682-17.682v-85.973c0-9.766 7.916-17.682 17.682-17.682h70.723c9.766 0 17.682 7.916 17.682 17.682v85.973c1e-3 9.766-7.916 17.682-17.682 17.682z" fill="#38c6d9"/>
<path d="m140.77 318.92h63.241c9.342 0 16.913-7.573 16.913-16.913v-184.58c0-9.342-7.573-16.913-16.913-16.913h-63.241c-9.342 0-16.913 7.573-16.913 16.913v184.58c-2e-3 9.34 7.571 16.913 16.913 16.913z" fill="#000080"/>

<path d="m220.92 117.43c0-9.34-7.573-16.913-16.913-16.913h-63.242c-9.342 0-16.913 7.573-16.913 16.913v34.563h97.07v-34.563z" fill="#ffc61b"/>

<path d="m209.81 63.663-33.976-50.604v-9.611c0-1.903-1.545-3.448-3.448-3.448s-3.448 1.545-3.448 3.448v9.611l-33.976 50.604c-1.062 1.581-0.641 3.724 0.94 4.784 1.584 1.067 3.724 0.638 4.784-0.94l28.253-42.077v26.552c0 1.903 1.545 3.448 3.448 3.448s3.448-1.545 3.448-3.448v-26.552l28.253 42.079c0.665 0.99 1.755 1.526 2.865 1.526 0.66 0 1.329-0.188 1.919-0.586 1.58-1.062 2-3.205 0.938-4.786z" fill="#71e2ef"/>
<path d="m209.81 63.663-33.976-50.604v-9.611c0-1.903-1.545-3.448-3.448-3.448-0.197 0-0.386 0.026-0.574 0.059v55.313c0.188 0.033 0.378 0.059 0.574 0.059 1.903 0 3.448-1.545 3.448-3.448v-26.553l28.253 42.079c0.665 0.99 1.755 1.526 2.865 1.526 0.66 0 1.329-0.188 1.919-0.586 1.581-1.062 2.001-3.205 0.939-4.786z" fill="#38c6d9"/>
<path d="m113.88 46.735c7.552 25.162 30.882 43.501 58.506 43.501s50.953-18.337 58.508-43.499z" fill="#ffedb5"/>
















<g transform="matrix(2.2238 0 0 2.2238 136.81 174.13)"><path d="m19.62 11.558-3.203 2.98-2.972-5.995 1.538-3.448c0.4-0.7 1.024-0.692 1.414 0z" fill="#ffa000"/><path d="m13.445 8.543 2.972 5.995-11.97 11.135z" fill="#f57f17"/><path d="m23.123 7.003c0.572-0.55 1.164-0.362 1.315 0.417l3.116 18.105-10.328 6.2c-0.36 0.2-1.32 0.286-1.32 0.286s-0.874-0.104-1.207-0.3l-10.252-6.038z" fill="#ffca28"/><path d="m13.445 8.543-8.997 17.13 4.007-25.035c0.148-0.78 0.592-0.855 0.988-0.167z" fill="#ffa000"/></g></svg>
