<?xml version="1.0" encoding="UTF-8" standalone="no"?>
<svg
   width="338.11728"
   height="300"
   viewBox="0 0 338.11728 300"
   version="1.1"
   id="svg392"
   xmlns="http://www.w3.org/2000/svg"
   xmlns:svg="http://www.w3.org/2000/svg">
  <defs
     id="defs130">
    <clipPath
       clipPathUnits="userSpaceOnUse"
       id="clipPath61318">
      <path
         id="path61320"
         style="display:none;fill:#c4b08a;fill-opacity:1;stroke:none;stroke-width:43.7268;stroke-linecap:round;stroke-linejoin:round;paint-order:stroke markers fill"
         d="M 5.70072,-196.73886 A 306.02551,61.581211 0 0 0 -300.32467,-135.15878 306.02551,61.581211 0 0 0 5.70072,-73.576748 306.02551,61.581211 0 0 0 311.72611,-135.15878 306.02551,61.581211 0 0 0 5.70072,-196.73886 Z" />
      <path
         id="lpe_path-effect61322"
         style="fill:#c4b08a;fill-opacity:1;stroke:none;stroke-width:43.7268;stroke-linecap:round;stroke-linejoin:round;paint-order:stroke markers fill"
         class="powerclip"
         d="m -305.32467,-414.63442 h 621.72252 v 277.53037 H -305.32467 Z M 5.70072,-196.73886 A 306.02551,61.581211 0 0 0 -300.32467,-135.15878 306.02551,61.581211 0 0 0 5.70072,-73.576748 306.02551,61.581211 0 0 0 311.72611,-135.15878 306.02551,61.581211 0 0 0 5.70072,-196.73886 Z" />
    </clipPath>
  </defs>
  <g
     id="g871"
     transform="matrix(1.1270576,0,0,1.1270576,3.6035694e-6,-19.058638)">
    <path
       id="ellipse61091-7"
       style="fill:#c4b08a;fill-opacity:1;fill-rule:evenodd;stroke:none;stroke-width:15.0688;stroke-linecap:round;stroke-linejoin:round;paint-order:stroke markers fill"
       d="M 162.32361,90.276679 A 105.46018,21.221648 0 0 0 56.863457,111.49794 105.46018,21.221648 0 0 0 162.32361,132.71987 105.46018,21.221648 0 0 0 267.78375,111.49794 105.46018,21.221648 0 0 0 162.32361,90.276679 Z" />
    <path
       d="m 121.65217,243.49775 v 18.93645 c 0,0 -16.32429,-1.30608 -18.28169,6.53041 -1.9574,7.83648 12.40604,0 12.40604,0 0,0 -5.87564,11.09996 -1.95739,13.71212 3.91824,2.61216 7.83648,-7.83648 9.79388,-12.40604 1.9574,-4.56956 5.22432,5.87564 5.22432,5.87564 0,0 1.30608,3.91824 5.22433,1.9574 3.91824,-1.9574 0,-5.87565 0,-5.87565 l -7.83649,-10.44864 v -18.93645 l -4.56956,-1.9574 v 2.61216 z"
       id="Path"
       fill="#6a4a35"
       style="fill-rule:nonzero;stroke:none;stroke-width:0.344612" />
    <path
       d="m 200.66145,243.49775 v 18.93645 c 0,0 16.32429,-1.30608 18.28169,6.53041 1.95739,7.83648 -12.40605,0 -12.40605,0 0,0 5.87564,11.09996 1.9574,13.71212 -3.91825,2.61216 -7.83649,-7.83648 -9.79389,-12.40604 -1.9574,-4.56956 -5.22432,5.87564 -5.22432,5.87564 0,0 -1.30608,3.91824 -5.22432,1.9574 -3.91825,-1.9574 0,-5.87565 0,-5.87565 l 7.83648,-10.44864 v -18.93645 l 4.56956,-1.9574 v 2.61216 z"
       id="path133"
       fill="#6a4a35"
       style="fill-rule:nonzero;stroke:none;stroke-width:0.344612" />
    <path
       d="m 69.743196,179.83406 c 0,0 -3.91825,71.82411 98.593614,67.25455 102.51184,-4.56956 85.53624,-67.25455 85.53624,-67.25455 0,0 -7.83304,-121.448305 -91.40844,-120.142224 C 78.889206,60.997918 69.743196,179.83406 69.743196,179.83406 Z"
       id="path135"
       fill="#8adcf6"
       style="fill-rule:nonzero;stroke:none;stroke-width:0.344612" />
    <g
       id="g1013">
      <path
         d="m 16.528146,158.61627 c 0,0 -16.3242894,-7.83648 -16.3242894,0 0,7.83649 -3.2634793,13.05737 16.3242894,32.64858 19.587768,19.59121 37.218138,26.11817 65.293709,26.11817 0,0 -17.833691,-27.59656 -6.957724,-67.01332 0,0 -18.505685,-23.09248 -18.505685,-29.62288 0,-6.53041 -8.487804,-24.812096 -19.587769,-22.854697 -11.099965,1.957398 -7.181722,22.199927 -7.181722,22.199927 0,0 -10.448648,-13.71212 -16.975606,-9.79388 -6.5269589,3.91824 -9.1425669,30.68773 3.914797,48.3181 z"
         id="path137"
         fill="#3fb7eb"
         style="fill-rule:nonzero;stroke:none;stroke-width:0.344612" />
      <path
         d="m 39.382839,141.63722 c 0,0 -5.224324,-0.65132 -8.487803,13.71213 0,0 -1.306081,15.66952 5.224324,20.24253 6.530405,4.573 20.242532,-9.14257 18.281687,-17.63037 -1.960844,-8.4878 -9.793884,-16.32429 -15.018208,-16.32429 z"
         id="path139"
         fill="#51c6e5"
         style="fill-rule:nonzero;stroke:none;stroke-width:0.344612" />
    </g>
    <path
       d="m 297.29765,199.09789 c 0,0 -39.8303,-47.01202 -54.19374,-54.19375 -14.36344,-7.18172 -5.22432,62.03023 3.91824,69.21196 9.14257,7.18172 9.79389,16.32429 30.68774,16.32429 0,0 3.26348,7.18172 11.75472,3.91824 8.48781,-3.26348 0,-23.50601 0,-23.50601 0,0 16.97217,4.56956 7.83304,-11.75473 z"
       id="path141"
       fill="#40b7ec"
       style="fill-rule:nonzero;stroke:none;stroke-width:0.344612" />
    <path
       d="m 92.270506,180.16144 c 0,0 23.506014,28.07557 69.866724,28.07557 46.3607,0 69.21195,-28.07557 69.21195,-28.07557 0,0 11.18267,21.2936 1.02005,50.15144 0,0 -21.26258,16.44835 -70.04591,16.95838 -56.99544,0.59273 -70.052814,-19.30864 -70.052814,-19.30864 0,0 -13.05736,-22.33433 0,-47.80118 z"
       id="path143"
       fill="#e0e2e2"
       style="fill-rule:nonzero;stroke:none;stroke-width:0.344612" />
    <path
       d="m 235.89806,132.94954 c 0.4928,13.94991 -8.69112,34.99539 -28.40295,38.56902 -19.70838,3.57018 -45.71972,-7.70209 -44.17586,-39.17554 3.4057,-27.18937 69.68467,-37.923114 72.57881,0.60652 z"
       id="path145"
       fill="#40b7ed"
       style="fill-rule:nonzero;stroke:none;stroke-width:0.344612" />
    <path
       d="m 90.905836,132.94954 c -0.49279,13.94991 8.69113,34.99539 28.402964,38.56902 19.70838,3.57018 45.71973,-7.70209 44.17586,-39.17554 -3.4057,-27.18937 -69.684674,-37.923114 -72.578824,0.60652 z"
       id="path147"
       fill="#40b7ed"
       style="fill-rule:nonzero;stroke:none;stroke-width:0.344612" />
    <g
       transform="matrix(0.34461239,0,0,0.34461239,112.59264,121.83235)"
       id="g152"
       style="fill:none;fill-rule:nonzero;stroke:none;stroke-width:1">
      <path
         d="m 41.109029,94.46 c -11.78,0 -21.24,-3.97 -28.11,-11.8 C 4.1290287,72.55 0.35902873,56.63 2.6590287,38.97 5.4090287,17.89 23.559029,1.99 44.869029,1.99 c 4.25,0 8.48,0.64 12.59,1.91 l 6.17,1.9 c 15.88,4.89 27.52,18.51 29.67,34.71 2.71,20.44 -2.38,46.24 -42.04,53.04 -3.52,0.6 -6.93,0.91 -10.15,0.91 z"
         id="path149"
         fill="#000000" />
      <path
         d="m 44.869029,4 c 3.96,0 7.99,0.58 12,1.82 l 6.17,1.9 c 15.03,4.62 26.21,17.47 28.28,33.06 2.62,19.77 -2.43,44.3 -40.4,50.81 -3.49,0.6 -6.76,0.88 -9.81,0.88 C 10.799029,92.47 1.3290287,64.6 4.6390287,39.24 7.3490287,18.5 25.139029,4 44.869029,4 m 0.01,-4 V 4 0 c 0,0 -0.01,0 0,0 C 22.559029,0 3.5590287,16.65 0.67902873,38.72 -1.7009713,56.95 2.2390287,73.45 11.499029,83.98 c 7.17,8.16 17.41,12.48 29.62,12.48 3.33,0 6.85,-0.32 10.49,-0.94 18.29,-3.14 31.13,-10.64 38.17,-22.3 5.38,-8.92 7.24,-20.01 5.52,-32.97 -2.25,-16.97 -14.44,-31.24 -31.06,-36.36 l -6.17,-1.9 c -4.32,-1.32 -8.75,-1.99 -13.19,-1.99 z"
         id="Shape"
         fill="#00ffc2" />
    </g>
    <circle
       id="Oval"
       fill="#ffffff"
       cx="124.70198"
       cy="128.57985"
       r="3.2634795"
       style="fill-rule:nonzero;stroke:none;stroke-width:0.344612" />
    <circle
       id="circle155"
       fill="#ffffff"
       cx="127.87585"
       cy="137.39503"
       r="4.8969421"
       style="fill-rule:nonzero;stroke:none;stroke-width:0.344612" />
    <g
       transform="matrix(0.34461239,0,0,0.34461239,179.7536,121.83235)"
       id="g161"
       style="fill:none;fill-rule:nonzero;stroke:none;stroke-width:1">
      <path
         d="m 54.800611,94.46 c -3.21,0 -6.63,-0.31 -10.15,-0.91 C 4.9906108,86.75 -0.09938918,60.95 2.6106108,40.51 4.7606108,24.31 16.400611,10.69 32.280611,5.8 l 6.17,-1.9 c 4.11,-1.26 8.34,-1.91 12.59,-1.91 21.31,0 39.46,15.9 42.21,36.98 2.3,17.66 -1.46,33.58 -10.34,43.69 -6.87,7.83 -16.33,11.8 -28.11,11.8 0,0 0,0 0,0 z"
         id="path157"
         fill="#000000" />
      <path
         d="m 51.030611,4 c 19.73,0 37.52,14.5 40.23,35.24 3.31,25.35 -6.15,53.23 -36.47,53.23 -3.06,0 -6.33,-0.28 -9.81,-0.88 C 7.0106108,85.08 1.9606108,60.56 4.5806108,40.78 6.6506108,25.2 17.830611,12.34 32.860611,7.72 l 6.17,-1.9 c 4.01,-1.24 8.05,-1.82 12,-1.82 m 0,-4 c -4.45,0 -8.88,0.67 -13.18,1.99 l -6.17,1.9 C 15.060611,9 2.8606108,23.28 0.62061082,40.25 c -1.72000002,12.96 0.14,24.05 5.51999998,32.97 7.0400002,11.66 19.8800002,19.17 38.1700002,22.3 3.63,0.62 7.16,0.94 10.49,0.94 12.21,0 22.45,-4.32 29.62,-12.48 9.25,-10.54 13.2,-27.04 10.82,-45.26 -2.89,-22.08 -21.89,-38.72 -44.21,-38.72 z"
         id="path159"
         fill="#00ffc2" />
    </g>
    <circle
       id="circle163"
       fill="#ffffff"
       cx="194.83748"
       cy="128.57985"
       r="3.2634795"
       style="fill-rule:nonzero;stroke:none;stroke-width:0.344612" />
    <circle
       id="circle165"
       fill="#ffffff"
       cx="199.69997"
       cy="137.39503"
       r="4.8969421"
       style="fill-rule:nonzero;stroke:none;stroke-width:0.344612" />
    <path
       style="fill:#cb5958;fill-opacity:1;fill-rule:evenodd;stroke:none;stroke-width:0.563813"
       d="m 100.19355,211.43182 c -0.982464,-10.3759 -3.420964,-20.23592 -4.718264,-30.49492 -2.6554,-21.00168 -4.04577,-45.8864 -3.53766,-67.7665 7.63935,18.17497 13.451144,39.57394 22.299974,55.47705 25.37829,45.606 57.57484,58.16314 85.7774,17.6303 7.83634,-11.2628 14.99949,-23.85805 21.32537,-39.25714 4.06229,-9.88967 7.04381,-23.7276 11.69825,-32.15606 4.40028,32.33374 -10.10731,72.26236 -8.00935,95.59822 0.75843,4.94272 7.48922,11.42458 8.9888,5.92617 1.94014,-7.11463 2.65242,-17.2093 3.37369,-25.28707 1.86921,-20.93053 1.34747,-53.49344 1.46877,-66.91941 0.0563,-6.22597 0.35654,-24.553499 -3.20214,-26.066397 -5.02072,-2.133795 -9.21248,15.816707 -12.39136,22.436647 -10.82838,22.54506 -21.88416,42.40404 -34.88536,58.22159 -12.23787,14.8883 -28.54707,16.4859 -41.65482,7.61018 -3.15038,-2.13295 -6.40883,-4.52849 -9.38171,-7.72877 -8.32982,-9.92881 -16.17886,-20.36521 -22.90077,-33.36484 -5.60388,-10.94514 -11.08581,-21.60905 -16.162074,-33.82735 -1.86283,-4.48444 -4.17974,-13.156014 -7.0952,-14.02004 -5.43614,-1.611146 -5.23575,17.58371 -5.25339,25.89189 -0.0537,25.12951 -0.98883,48.85034 2.04334,73.69608 0.59443,4.8724 1.50445,20.65946 4.04089,22.18251 2.25649,1.35533 6.23809,-5.53567 8.175614,-7.78214 m 130.46852,-85.27312 0.24991,0.28292"
       id="path1339" />
    <path
       d="m 162.71618,140.1864 c 0,0 -13.05737,1.9574 -13.05737,14.36345 l 15.66953,64.64239 11.09996,-67.90587 c 0,0 -3.26347,-11.09997 -13.71212,-11.09997 z"
       id="path167"
       fill="#6a4a35"
       style="fill-rule:nonzero;stroke:none;stroke-width:0.344612" />
    <path
       style="fill:#e0c99f;fill-opacity:1;fill-rule:evenodd;stroke:none;stroke-width:1.08896px;stroke-linecap:butt;stroke-linejoin:miter;stroke-opacity:1"
       d="M 311.39785,-142.10405 H -300.32467 L 3.97365,-409.63442 Z"
       id="path61094"
       clip-path="url(#clipPath61318)"
       transform="matrix(0.34461239,0,0,0.34461239,160.41563,158.07518)" />
  </g>
</svg>
