<?xml version="1.0" encoding="UTF-8" standalone="no"?>
<svg
   width="435.95102"
   height="300"
   viewBox="0 0 435.95102 300"
   version="1.1"
   id="svg392"
   xmlns="http://www.w3.org/2000/svg"
   xmlns:svg="http://www.w3.org/2000/svg">
  <defs
     id="defs130">
    <linearGradient
       x1="309.55902"
       y1="101.39651"
       x2="296.52942"
       y2="49.359249"
       id="linearGradient-23"
       gradientTransform="scale(1.3225713,0.75610291)"
       gradientUnits="userSpaceOnUse">
      <stop
         stop-color="#000000"
         stop-opacity="0"
         offset="0%"
         id="stop120" />
      <stop
         stop-color="#000000"
         stop-opacity="0.3"
         offset="100%"
         id="stop122" />
    </linearGradient>
    <linearGradient
       x1="82.901154"
       y1="449.90747"
       x2="66.847618"
       y2="289.62799"
       id="linearGradient-24"
       gradientTransform="scale(0.83648297,1.1954816)"
       gradientUnits="userSpaceOnUse">
      <stop
         stop-color="#000000"
         stop-opacity="0"
         offset="0%"
         id="stop125" />
      <stop
         stop-color="#000000"
         stop-opacity="0.3"
         offset="100%"
         id="stop127" />
    </linearGradient>
  </defs>
  <g
     id="dart-bird-1"
     transform="matrix(0.38511516,0,0,0.38511516,49.499361,24.442788)"
     fill-rule="nonzero"
     style="fill:none;stroke:none;stroke-width:1">
    <g
       id="Group"
       transform="translate(0,20.420513)">
      <path
         d="m 485.93868,580.20949 v 54.95 c 0,0 -47.37,-3.79 -53.05,18.95 -5.68,22.74 36,0 36,0 0,0 -17.05,32.21 -5.68,39.79 11.37,7.58 22.74,-22.74 28.42,-36 5.68,-13.26 15.16,17.05 15.16,17.05 0,0 3.79,11.37 15.16,5.68 11.37,-5.68 0,-17.05 0,-17.05 l -22.74,-30.32 v -54.95 l -13.26,-5.68 v 7.58 z"
         id="Path"
         fill="#6a4a35" />
      <path
         d="m 715.20868,580.20949 v 54.95 c 0,0 47.37,-3.79 53.05,18.95 5.68,22.74 -36,0 -36,0 0,0 17.05,32.21 5.68,39.79 -11.37,7.58 -22.74,-22.74 -28.42,-36 -5.68,-13.26 -15.16,17.05 -15.16,17.05 0,0 -3.79,11.37 -15.16,5.68 -11.37,-5.68 0,-17.05 0,-17.05 l 22.74,-30.32 v -54.95 l 13.26,-5.68 v 7.58 z"
         id="path133"
         fill="#6a4a35" />
      <path
         d="m 335.30868,395.46949 c 0,0 -11.37,208.42 286.1,195.16 297.47,-13.26 248.21,-195.16 248.21,-195.16 0,0 -22.73,-352.420003 -265.25,-348.630003 -242.52,3.790001 -269.06,348.630003 -269.06,348.630003 z"
         id="path135"
         fill="#8adcf6" />
      <path
         d="m 180.88868,333.89949 c 0,0 -47.37,-22.74 -47.37,0 0,22.74 -9.47,37.89 47.37,94.74 56.84,56.85 108,75.79 189.47,75.79 0,0 -51.75,-80.08 -20.19,-194.46 0,0 -53.7,-67.01 -53.7,-85.96 0,-18.95 -24.63,-72 -56.84,-66.32 -32.21,5.68 -20.84,64.42 -20.84,64.42 0,0 -30.32,-39.79 -49.26,-28.42 -18.94,11.37 -26.53,89.05 11.36,140.21 z"
         id="path137"
         fill="#3fb7eb" />
      <path
         d="m 247.20868,284.62949 c 0,0 -15.16,-1.89 -24.63,39.79 0,0 -3.79,45.47 15.16,58.74 18.95,13.27 58.74,-26.53 53.05,-51.16 -5.69,-24.63 -28.42,-47.37 -43.58,-47.37 z"
         id="path139"
         fill="#51c6e5" />
      <path
         d="m 995.62868,451.36949 c 0,0 -115.58,-136.42 -157.26,-157.26 -41.68,-20.84 -15.16,180 11.37,200.84 26.53,20.84 28.42,47.37 89.05,47.37 0,0 9.47,20.84 34.11,11.37 24.63,-9.47 0,-68.21 0,-68.21 0,0 49.25002,13.26 22.73,-34.11 z"
         id="path141"
         fill="#40b7ec" />
      <path
         d="m 400.67868,396.41949 c 0,0 68.21,81.47 202.74,81.47 134.53,0 200.84,-81.47 200.84,-81.47 0,0 32.45,61.79 2.96,145.53 0,0 -61.7,47.73 -203.26,49.21 -165.39,1.72 -203.28,-56.03 -203.28,-56.03 0,0 -37.89,-64.81 0,-138.71 z"
         id="path143"
         fill="#e0e2e2" />
      <path
         d="m 769.78868,183.05949 c 0,0 46.24,35.88 47.67,76.36 1.43,40.48 -25.22,101.55 -82.42,111.92 -57.19,10.36 -132.67,-22.35 -128.19,-113.68 0,0 -1.01,-5.91 20.9,-48.54 z"
         id="path145"
         fill="#40b7ed" />
      <path
         d="m 444.38868,183.05949 c 0,0 -46.24,35.88 -47.67,76.36 -1.43,40.48 25.22,101.55 82.42,111.92 57.19,10.36 132.67,-22.35 128.19,-113.68 0,0 1.01,-5.91 -20.9,-48.54 z"
         id="path147"
         fill="#40b7ed" />
      <g
         transform="translate(459.64965,227.15949)"
         id="g152">
        <path
           d="m 41.109029,94.46 c -11.78,0 -21.24,-3.97 -28.11,-11.8 C 4.1290287,72.55 0.35902873,56.63 2.6590287,38.97 5.4090287,17.89 23.559029,1.99 44.869029,1.99 c 4.25,0 8.48,0.64 12.59,1.91 l 6.17,1.9 c 15.88,4.89 27.52,18.51 29.67,34.71 2.71,20.44 -2.38,46.24 -42.04,53.04 -3.52,0.6 -6.93,0.91 -10.15,0.91 z"
           id="path149"
           fill="#000000" />
        <path
           d="m 44.869029,4 c 3.96,0 7.99,0.58 12,1.82 l 6.17,1.9 c 15.03,4.62 26.21,17.47 28.28,33.06 2.62,19.77 -2.43,44.3 -40.4,50.81 -3.49,0.6 -6.76,0.88 -9.81,0.88 C 10.799029,92.47 1.3290287,64.6 4.6390287,39.24 7.3490287,18.5 25.139029,4 44.869029,4 m 0.01,-4 V 4 0 c 0,0 -0.01,0 0,0 C 22.559029,0 3.5590287,16.65 0.67902873,38.72 -1.7009713,56.95 2.2390287,73.45 11.499029,83.98 c 7.17,8.16 17.41,12.48 29.62,12.48 3.33,0 6.85,-0.32 10.49,-0.94 18.29,-3.14 31.13,-10.64 38.17,-22.3 5.38,-8.92 7.24,-20.01 5.52,-32.97 -2.25,-16.97 -14.44,-31.24 -31.06,-36.36 l -6.17,-1.9 c -4.32,-1.32 -8.75,-1.99 -13.19,-1.99 z"
           id="Shape"
           fill="#00ffc2" />
      </g>
      <circle
         id="Oval"
         fill="#ffffff"
         cx="494.78867"
         cy="246.73949"
         r="9.4700003" />
      <circle
         id="circle155"
         fill="#ffffff"
         cx="503.99869"
         cy="272.31949"
         r="14.21" />
      <g
         transform="translate(654.53806,227.15949)"
         id="g161">
        <path
           d="m 54.800611,94.46 c -3.21,0 -6.63,-0.31 -10.15,-0.91 C 4.9906108,86.75 -0.09938918,60.95 2.6106108,40.51 4.7606108,24.31 16.400611,10.69 32.280611,5.8 l 6.17,-1.9 c 4.11,-1.26 8.34,-1.91 12.59,-1.91 21.31,0 39.46,15.9 42.21,36.98 2.3,17.66 -1.46,33.58 -10.34,43.69 -6.87,7.83 -16.33,11.8 -28.11,11.8 0,0 0,0 0,0 z"
           id="path157"
           fill="#000000" />
        <path
           d="m 51.030611,4 c 19.73,0 37.52,14.5 40.23,35.24 3.31,25.35 -6.15,53.23 -36.47,53.23 -3.06,0 -6.33,-0.28 -9.81,-0.88 C 7.0106108,85.08 1.9606108,60.56 4.5806108,40.78 6.6506108,25.2 17.830611,12.34 32.860611,7.72 l 6.17,-1.9 c 4.01,-1.24 8.05,-1.82 12,-1.82 m 0,-4 c -4.45,0 -8.88,0.67 -13.18,1.99 l -6.17,1.9 C 15.060611,9 2.8606108,23.28 0.62061082,40.25 c -1.72000002,12.96 0.14,24.05 5.51999998,32.97 7.0400002,11.66 19.8800002,19.17 38.1700002,22.3 3.63,0.62 7.16,0.94 10.49,0.94 12.21,0 22.45,-4.32 29.62,-12.48 9.25,-10.54 13.2,-27.04 10.82,-45.26 -2.89,-22.08 -21.89,-38.72 -44.21,-38.72 z"
           id="path159"
           fill="#00ffc2" />
      </g>
      <circle
         id="circle163"
         fill="#ffffff"
         cx="698.30865"
         cy="246.73949"
         r="9.4700003" />
      <circle
         id="circle165"
         fill="#ffffff"
         cx="712.4187"
         cy="272.31949"
         r="14.21" />
      <path
         d="m 605.09868,280.41949 c 0,0 -37.89,5.68 -37.89,41.68 l 45.47,187.58 32.21,-197.05 c 0,0 -9.47,-32.21 -39.79,-32.21 z"
         id="path167"
         fill="#6a4a35" />
    </g>
  </g>
  <g
     id="horn-1"
     transform="matrix(0.38511516,0,0,0.38511516,-1.2837172e-7,6.6812767)"
     fill-rule="nonzero"
     style="fill:none;stroke:none;stroke-width:1">
    <g
       id="g336">
      <path
         d="m 51.850025,47.117695 c 8.203824,14.659725 20.32755,34.851756 36.690806,58.528075 46.426189,72.10173 140.543769,191.82208 294.525289,277.45314 -4.47481,7.95269 -6.53021,17.77608 -7.4669,25.10816 C 275.12013,394.88166 135.30441,365.04799 46.647167,298.68691 34.248205,264.24742 11.496798,173.86425 51.850025,47.117695 Z"
         id="path326"
         fill="#055799" />
      <path
         d="m 392.49075,409.85169 c 0.82571,-7.55816 4.31056,-14.939 7.18279,-19.93492 17.76163,8.48907 36.2957,16.57475 55.63329,24.15507 -0.40842,0.49649 -0.76356,1.00185 -1.09207,1.5072 -17.51303,-1.28111 -38.48428,-3.11635 -61.72401,-5.72735 z"
         id="path328"
         fill="#055799" />
      <path
         d="m 377.7434,408.34892 c 0.0755,-0.78906 0.16869,-1.64905 0.28411,-2.55337 0.71473,-5.60767 2.28624,-13.11263 5.7045,-19.19019 0.60375,-1.07277 1.25632,-2.10121 1.97993,-3.06759 7.83092,-10.42627 10.72979,-6.08199 6.37039,-0.91762 -0.57266,0.67824 -1.13202,1.34761 -1.58926,2.10565 -0.57267,0.94865 -1.42058,2.42925 -2.35727,4.28221 -2.19745,4.35758 -4.86103,10.79421 -5.49141,17.38155 -0.12431,1.31215 -0.17314,2.62874 -0.11987,3.94089 0.0755,1.76431 0.47057,3.50645 1.12315,5.14664 0.73692,1.84853 1.45165,4.45067 -1.20749,2.78388 -3.32504,-2.08791 -5.06968,-5.99333 -4.69678,-9.91205 z"
         id="path330"
         fill="#07c6f9" />
      <path
         d="m 385.09044,410.22849 c 0.0755,-0.7137 0.16869,-1.48947 0.28411,-2.30513 0.71473,-5.06241 2.28624,-11.84481 5.7045,-17.33722 0.60375,-0.96638 1.25632,-1.90173 1.97993,-2.77058 7.83092,-9.41556 10.72979,-5.49242 6.37039,-0.82896 -0.57267,0.61174 -1.13202,1.21905 -1.58926,1.90173 -0.57267,0.85555 -1.42058,2.1943 -2.35727,3.86552 -2.19745,3.93645 -4.86103,9.74803 -5.49142,15.70146 -0.1243,1.1836 -0.17313,2.37606 -0.11986,3.55965 0.0755,1.59586 0.47057,3.16955 1.12315,4.65015 0.73692,1.67122 1.45165,4.02068 -1.20749,2.51791 -3.32948,-1.88843 -5.07412,-5.41705 -4.69678,-8.95453 z"
         id="path332"
         fill="#07c6f9" />
      <path
         d="m 24.104407,0 c 0,0 4.310559,9.9475122 13.286821,26.872468 C -2.9619989,160.67183 19.789408,256.08195 32.18837,292.43647 c -2.739047,-2.16328 -5.44702,-4.35758 -8.083963,-6.59621 0,0 -54.234915,-110.52644 0,-285.84026 z"
         id="path334"
         fill="#055799" />
    </g>
  </g>
  <g
     id="helmet-1"
     transform="matrix(0.25265828,0.2906501,-0.2906501,0.25265828,290.40661,-90.068867)"
     fill-rule="nonzero"
     style="fill:none;stroke:none;stroke-width:1">
    <g
       id="g387">
      <path
         d="m 300.65975,13.735014 c 0,0 120.3,24.9 99.8,100.099996 0,0 60.2,-16.799996 99.2,-9.4 0,0 11.8,-149.599996 -199,-90.699996 z"
         id="path355"
         fill="#f9cb7a" />
      <path
         d="m 3.2597482,352.73501 c 0,0 43.7999998,112.1 116.8000018,80.7 0,0 -7.7,60.7 5.8,97.1 0,0 -149.600002,34.5 -122.6000018,-177.8 z"
         id="path357"
         fill="#f9cb7a" />
      <path
         d="m 127.65975,431.33501 c 0,0 -3.3,-2.7 -7.5,2.1 -4.2,4.8 -4.1,88.9 9.1,99.8 13.2,10.9 13.10001,11 13.10001,11 0,0 -23.40001,-44.6 -14.70001,-112.9 z"
         id="path359"
         fill="#999999" />
      <path
         d="m 194.95975,529.53501 c 0,0 -37.3,36 -56,12 -18.7,-24 -19.9,-100.5 -11.4,-110.2 8.5,-9.7 28.8,-26.3 28.8,-26.3 0,0 7.8,81.9 38.6,124.5 z"
         id="path361"
         fill="#4c4c4c" />
      <path
         d="m 194.95975,529.53501 c 0,0 10.8,0.6 12.7,-14.5 0,0 -48.6,-74.2 -42.8,-119.7 0,0 -6.6,-5.5 -11.8,6.9 0.1,0.1 -1.1,66.2 41.9,127.3 z"
         id="path363"
         fill="#999999" />
      <path
         d="m 179.75975,307.13501 c 0,0 -52.1,124.2 36.9,223.7 0,0 0.6,-33.1 61.6,-141.5 z"
         id="path365"
         fill="#4c4c4c" />
      <path
         d="m 297.55975,380.23501 c 0,0 -90.8,142.3 -79.2,194 0,0 0.4,25.5 19.7,16.4 l 15.1,-4.2 c 0,0 24.3,-105.5 75.3,-163.6 l 50.6,59 72,-23.8 12.7,-14.5 -265.8,-221.9 c 0,0 -36.3,28.4 -12,65.5 z"
         id="path367"
         fill="#4c4c4c" />
      <path
         d="m 218.35975,574.23501 c 0,0 -37.1,-22.6 59.9,-184.9 l -98.5,-82.2 c 0,0 -2.3,-10.3 6.2,-20 l 111.6,93.1 c 0,0 -85.6,129.9 -79.2,194 z"
         id="path369"
         fill="#999999" />
      <path
         d="m 300.65975,13.735014 c 0,0 120.3,24.9 99.8,100.099996 0,0 60.2,-16.799996 99.2,-9.4 0,0 11.8,-149.599996 -199,-90.699996 z"
         id="path371"
         fill="url(#linearGradient-23)"
         style="fill:url(#linearGradient-23)" />
      <path
         d="m 3.2597482,352.73501 c 0,0 43.7999998,112.1 116.8000018,80.7 0,0 -7.7,60.7 5.8,97.1 0,0 -149.600002,34.5 -122.6000018,-177.8 z"
         id="path373"
         fill="url(#linearGradient-24)"
         style="fill:url(#linearGradient-24)" />
      <path
         d="m 399.45975,121.43501 c 0,0 -3.3,-2.7 1,-7.6 4.2,-4.8 89.4,-17.699996 102.5,-6.7 13.1,11 13.1,11 13.1,11 0,0 -48.8,-15.6 -116.6,3.3 z"
         id="path375"
         fill="#999999" />
      <path
         d="m 509.35975,171.13501 c 0,0 30.7,-41.5 3.5,-55.8 -27.2,-14.3 -104.8,-3.6 -113.3,6.1 -8.5,9.7 -22.2,31.8 -22.2,31.8 0,0 84.1,-5.2 132,17.9 z"
         id="path377"
         fill="#4c4c4c" />
      <path
         d="m 509.35975,171.13501 c 0,0 2.3,10.3 -12.7,14.5 0,0 -82.6,-35.4 -127.8,-22.8 0,0 -6.6,-5.5 5.2,-12.4 -0.1,0 66.7,-11.3 135.3,20.7 z"
         id="path379"
         fill="#999999" />
      <path
         d="m 281.75975,190.83501 c 0,0 117.8,-69.5 232.3,0.9 0,0 -33.4,5.7 -133.8,81.2 z"
         id="path381"
         fill="#4c4c4c" />
      <path
         d="m 373.95975,293.03501 c 0,0 130.1,-109.5 184.2,-106.3 0,0 25.9,-3.6 19.7,16.4 l -1.9,15.2 c 0,0 -103.1,39.8 -154.1,97.9 l 67.6,39.6 -12.9,73.1 -12.7,14.5 -265.9,-221.8 c 0,0 23.2,-39.4 64.5,-21.7 z"
         id="path383"
         fill="#4c4c4c" />
      <path
         d="m 558.15975,186.83501 c 0,0 -28.6,-32.2 -178,86.3 l -98.5,-82.2 c 0,0 -10.8,-0.6 -19.3,9 l 111.6,93.1 c 0,0 118.4,-102.5 184.2,-106.2 z"
         id="path385"
         fill="#999999" />
    </g>
  </g>
</svg>
