<?xml version="1.0" encoding="UTF-8" standalone="no"?>
<svg
   width="338.12"
   height="300"
   version="1.1"
   viewBox="0 0 338.12 300"
   id="svg54"
   xmlns="http://www.w3.org/2000/svg"
   xmlns:svg="http://www.w3.org/2000/svg">
  <defs
     id="defs7">
    <clipPath
       id="clipPath61318">
      <path
         d="m5.7007-196.74a306.03 61.581 0 0 0-306.03 61.58 306.03 61.581 0 0 0 306.03 61.582 306.03 61.581 0 0 0 306.03-61.582 306.03 61.581 0 0 0-306.03-61.58z"
         display="none"
         fill="#c4b08a"
         style="paint-order:stroke markers fill"
         id="path2" />
      <path
         class="powerclip"
         d="m-305.32-414.63h621.72v277.53h-621.72zm311.03 217.9a306.03 61.581 0 0 0-306.03 61.58 306.03 61.581 0 0 0 306.03 61.582 306.03 61.581 0 0 0 306.03-61.582 306.03 61.581 0 0 0-306.03-61.58z"
         fill="#c4b08a"
         style="paint-order:stroke markers fill"
         id="path4" />
    </clipPath>
  </defs>
  <g
     transform="matrix(1.1271,0,0,1.1271,3.6036e-6,-19.059)"
     id="g22">
    <path
       d="m 16.528,158.62 c 0,0 -16.324,-7.8365 -16.324,0 0,7.8365 -3.2635,13.057 16.324,32.649 19.588,19.591 37.218,26.118 65.294,26.118 0,0 -17.834,-27.597 -6.9577,-67.013 0,0 -18.506,-23.092 -18.506,-29.623 0,-6.5304 -8.4878,-24.812 -19.588,-22.855 -11.1,1.9574 -7.1817,22.2 -7.1817,22.2 0,0 -10.449,-13.712 -16.976,-9.7939 -6.527,3.9182 -9.1426,30.688 3.9148,48.318 z"
       fill="#3fb7eb"
       id="path18" />
    <path
       d="m 39.383,141.64 c 0,0 -5.2243,-0.65132 -8.4878,13.712 0,0 -1.3061,15.67 5.2243,20.243 6.5304,4.573 20.243,-9.1426 18.282,-17.63 -1.9608,-8.4878 -9.7939,-16.324 -15.018,-16.324 z"
       fill="#51c6e5"
       id="path20" />
  </g>
  <path
     d="m182.95 82.688a118.86 23.918 0 0 0-118.86 23.918 118.86 23.918 0 0 0 118.86 23.918 118.86 23.918 0 0 0 118.86-23.918 118.86 23.918 0 0 0-118.86-23.918z"
     fill="#c4b08a"
     fill-rule="evenodd"
     style="paint-order:stroke markers fill"
     id="path9" />
  <g
     id="g16">
    <path
       id="Path"
       d="m137.11 255.38v21.342s-18.398-1.472-20.605 7.3602c-2.2061 8.8322 13.982 0 13.982 0s-6.6222 12.51-2.2061 15.454c4.4161 2.944 8.8322-8.8322 11.038-13.982 2.2061-5.1502 5.8881 6.6222 5.8881 6.6222s1.472 4.4161 5.8881 2.2061c4.4161-2.2061 0-6.6222 0-6.6222l-8.8322-11.776v-21.342l-5.1502-2.2061v2.944z"
       fill="#6a4a35" />
    <path
       d="m226.16 255.38v21.342s18.398-1.472 20.605 7.3602c2.2061 8.8322-13.982 0-13.982 0s6.6222 12.51 2.2061 15.454c-4.4161 2.944-8.8322-8.8322-11.038-13.982-2.2061-5.1502-5.8881 6.6222-5.8881 6.6222s-1.472 4.4161-5.8881 2.2061c-4.4161-2.2061 0-6.6222 0-6.6222l8.8322-11.776v-21.342l5.1502-2.2061v2.944z"
       fill="#6a4a35"
       id="path12" />
    <path
       d="m78.605 183.62s-4.4161 80.95 111.12 75.8c115.54-5.1502 96.404-75.8 96.404-75.8s-8.8283-136.88-103.02-135.41c-94.194 1.472-104.5 135.41-104.5 135.41z"
       fill="#8adcf6"
       id="path14" />
  </g>
  <path
     d="m335.07 205.34s-44.891-52.985-61.079-61.079c-16.188-8.0942-5.8881 69.912 4.4161 78.006 10.304 8.0942 11.038 18.398 34.587 18.398 0 0 3.6781 8.0942 13.248 4.4161 9.5662-3.6781 0-26.493 0-26.493s19.129 5.1502 8.8283-13.248z"
     fill="#40b7ec"
     id="path24" />
  <path
     d="m103.99 183.99s26.493 31.643 78.744 31.643c52.251 0 78.006-31.643 78.006-31.643s12.604 23.999 1.1496 56.524c0 0-23.964 18.538-78.946 19.113-64.237 0.66805-78.954-21.762-78.954-21.762s-14.716-25.172 0-53.875z"
     fill="#e0e2e2"
     id="path26" />
  <g
     id="g46"
     style="display:inline">
    <path
       d="m 102.46,130.78 c -0.55541,15.722 9.7954,39.442 32.012,43.47 22.212,4.0238 51.529,-8.6807 49.789,-44.153 -3.8384,-30.644 -78.539,-42.742 -81.801,0.68358 z"
       fill="#40b7ed"
       id="path28" />
    <path
       transform="matrix(0.3884,0,0,0.3884,126.9,118.25)"
       d="m 41.109,94.46 c -11.78,0 -21.24,-3.97 -28.11,-11.8 C 4.129,72.55 0.359,56.63 2.659,38.97 5.409,17.89 23.559,1.99 44.869,1.99 c 4.25,0 8.48,0.64 12.59,1.91 l 6.17,1.9 c 15.88,4.89 27.52,18.51 29.67,34.71 2.71,20.44 -2.38,46.24 -42.04,53.04 -3.52,0.6 -6.93,0.91 -10.15,0.91 z"
       id="path30" />
    <path
       id="Shape"
       transform="matrix(0.3884,0,0,0.3884,126.9,118.25)"
       d="m 44.869,4 c 3.96,0 7.99,0.58 12,1.82 l 6.17,1.9 c 15.03,4.62 26.21,17.47 28.28,33.06 2.62,19.77 -2.43,44.3 -40.4,50.81 -3.49,0.6 -6.76,0.88 -9.81,0.88 C 10.799,92.47 1.329,64.6 4.639,39.24 7.349,18.5 25.139,4 44.869,4 m 0.01,-4 V 4 0 c 0,0 -0.01,0 0,0 -22.32,0 -41.32,16.65 -44.2,38.72 -2.38,18.23 1.56,34.73 10.82,45.26 7.17,8.16 17.41,12.48 29.62,12.48 3.33,0 6.85,-0.32 10.49,-0.94 18.29,-3.14 31.13,-10.64 38.17,-22.3 5.38,-8.92 7.24,-20.01 5.52,-32.97 C 93.049,23.28 80.859,9.01 64.239,3.89 l -6.17,-1.9 C 53.749,0.67 49.319,0 44.879,0 Z"
       fill="#00ffc2" />
    <circle
       id="Oval"
       cx="140.55"
       cy="125.86"
       r="3.6781001"
       fill="#ffffff" />
    <circle
       cx="144.12"
       cy="135.78999"
       r="5.5191002"
       fill="#ffffff"
       id="circle34" />
    <path
       d="m 265.87,130.78 c 0.55542,15.722 -9.7954,39.442 -32.012,43.47 -22.212,4.0238 -51.529,-8.6807 -49.789,-44.153 3.8384,-30.644 78.539,-42.742 81.8,0.68358 z"
       fill="#40b7ed"
       id="path36" />
    <path
       transform="matrix(0.3884,0,0,0.3884,202.59,118.25)"
       d="m 54.801,94.46 c -3.21,0 -6.63,-0.31 -10.15,-0.91 C 4.991,86.75 -0.099,60.95 2.611,40.51 4.761,24.31 16.401,10.69 32.281,5.8 l 6.17,-1.9 c 4.11,-1.26 8.34,-1.91 12.59,-1.91 21.31,0 39.46,15.9 42.21,36.98 2.3,17.66 -1.46,33.58 -10.34,43.69 -6.87,7.83 -16.33,11.8 -28.11,11.8 z"
       id="path38" />
    <path
       transform="matrix(0.3884,0,0,0.3884,202.59,118.25)"
       d="m 51.031,4 c 19.73,0 37.52,14.5 40.23,35.24 3.31,25.35 -6.15,53.23 -36.47,53.23 -3.06,0 -6.33,-0.28 -9.81,-0.88 C 7.011,85.08 1.961,60.56 4.581,40.78 6.651,25.2 17.831,12.34 32.861,7.72 l 6.17,-1.9 C 43.041,4.58 47.081,4 51.031,4 m 0,-4 c -4.45,0 -8.88,0.67 -13.18,1.99 l -6.17,1.9 C 15.061,9 2.861,23.28 0.621,40.25 c -1.72,12.96 0.14,24.05 5.52,32.97 7.04,11.66 19.88,19.17 38.17,22.3 3.63,0.62 7.16,0.94 10.49,0.94 12.21,0 22.45,-4.32 29.62,-12.48 9.25,-10.54 13.2,-27.04 10.82,-45.26 C 92.351,16.64 73.351,0 51.031,0 Z"
       fill="#00ffc2"
       id="path40" />
    <circle
       cx="219.59"
       cy="125.86"
       r="3.6781001"
       fill="#ffffff"
       id="circle42" />
    <circle
       cx="225.07001"
       cy="135.78999"
       r="5.5191002"
       fill="#ffffff"
       id="circle44" />
  </g>
  <path
     d="m112.92 219.24c-1.1073-11.694-3.8556-22.807-5.3178-34.37-2.9928-23.67-4.5598-51.717-3.9872-76.377 8.61 20.484 15.16 44.602 25.133 62.526 28.603 51.401 64.89 65.553 96.676 19.87 8.832-12.694 16.905-26.889 24.035-44.245 4.5784-11.146 7.9388-26.742 13.185-36.242 4.9594 36.442-11.392 81.444-9.027 107.74 0.8548 5.5707 8.4408 12.876 10.131 6.6791 2.1866-8.0186 2.9894-19.396 3.8023-28.5 2.1067-23.59 1.5187-60.29 1.6554-75.422 0.0634-7.017 0.40184-27.673-3.609-29.378-5.6586-2.4049-10.383 17.826-13.966 25.287-12.204 25.41-24.665 47.792-39.318 65.619-13.793 16.78-32.174 18.581-46.947 8.5771-3.5507-2.404-7.2231-5.1039-10.574-8.7108-9.3882-11.19-18.235-22.953-25.81-37.604-6.3159-12.336-12.494-24.355-18.216-38.125-2.0995-5.0542-4.7108-14.828-7.9967-15.801-6.1268-1.8159-5.901 19.818-5.9209 29.182-0.06052 28.322-1.1145 55.057 2.303 83.06 0.66996 5.4915 1.6956 23.284 4.5543 25.001 2.5432 1.5275 7.0307-6.239 9.2144-8.7709m147.05-96.108 0.28167 0.31887"
     fill="#cb5958"
     fill-rule="evenodd"
     id="path48" />
  <path
     d="m183.39 138.94s-14.716 2.2061-14.716 16.188l17.66 72.856 12.51-76.534s-3.6781-12.51-15.454-12.51z"
     fill="#6a4a35"
     id="path50" />
  <path
     transform="matrix(.3884 0 0 .3884 180.8 159.1)"
     d="m311.4-142.1h-611.72l304.3-267.53z"
     clip-path="url(#clipPath61318)"
     fill="#e0c99f"
     fill-rule="evenodd"
     id="path52" />
</svg>
