<?xml version="1.0" encoding="UTF-8" standalone="no"?>
<svg
   width="800.26929"
   height="300"
   viewBox="0 0 800.26929 300"
   version="1.1"
   id="svg392"
   sodipodi:docname="vikings-dash.svg"
   inkscape:version="1.1.1 (3bf5ae0d25, 2021-09-20)"
   xmlns:inkscape="http://www.inkscape.org/namespaces/inkscape"
   xmlns:sodipodi="http://sodipodi.sourceforge.net/DTD/sodipodi-0.dtd"
   xmlns="http://www.w3.org/2000/svg"
   xmlns:svg="http://www.w3.org/2000/svg">
  <sodipodi:namedview
     id="namedview394"
     pagecolor="#ffffff"
     bordercolor="#666666"
     borderopacity="1.0"
     inkscape:pageshadow="2"
     inkscape:pageopacity="0.0"
     inkscape:pagecheckerboard="0"
     showgrid="false"
     fit-margin-top="0"
     fit-margin-left="0"
     fit-margin-right="0"
     fit-margin-bottom="0"
     inkscape:zoom="0.88201192"
     inkscape:cx="194.44182"
     inkscape:cy="307.81897"
     inkscape:window-width="1920"
     inkscape:window-height="1013"
     inkscape:window-x="-9"
     inkscape:window-y="-9"
     inkscape:window-maximized="1"
     inkscape:current-layer="svg392" />
  <defs
     id="defs130">
    <radialGradient
       cx="8.7107029"
       cy="8.6814651"
       fx="8.7107029"
       fy="8.6814651"
       r="11.469978"
       gradientTransform="scale(0.79692806,1.2548184)"
       id="radialGradient-1"
       gradientUnits="userSpaceOnUse">
      <stop
         stop-color="#FFFFFF"
         offset="0%"
         id="stop2" />
      <stop
         stop-color="#FFFFFF"
         stop-opacity="0"
         offset="100%"
         id="stop4" />
    </radialGradient>
    <radialGradient
       cx="30.109295"
       cy="19.25057"
       fx="30.109295"
       fy="19.25057"
       r="11.469978"
       gradientTransform="scale(0.79692806,1.2548184)"
       id="radialGradient-2"
       gradientUnits="userSpaceOnUse">
      <stop
         stop-color="#FFFFFF"
         offset="0%"
         id="stop7" />
      <stop
         stop-color="#FFFFFF"
         stop-opacity="0"
         offset="100%"
         id="stop9" />
    </radialGradient>
    <radialGradient
       cx="51.507694"
       cy="29.819754"
       fx="51.507694"
       fy="29.819754"
       r="11.469978"
       gradientTransform="scale(0.79692806,1.2548184)"
       id="radialGradient-3"
       gradientUnits="userSpaceOnUse">
      <stop
         stop-color="#FFFFFF"
         offset="0%"
         id="stop12" />
      <stop
         stop-color="#FFFFFF"
         stop-opacity="0"
         offset="100%"
         id="stop14" />
    </radialGradient>
    <radialGradient
       cx="75.284554"
       cy="35.858654"
       fx="75.284554"
       fy="35.858654"
       r="11.47014"
       gradientTransform="scale(0.79691682,1.2548361)"
       id="radialGradient-4"
       gradientUnits="userSpaceOnUse">
      <stop
         stop-color="#FFFFFF"
         offset="0%"
         id="stop17" />
      <stop
         stop-color="#FFFFFF"
         stop-opacity="0"
         offset="100%"
         id="stop19" />
    </radialGradient>
    <radialGradient
       cx="99.06057"
       cy="41.897896"
       fx="99.06057"
       fy="41.897896"
       r="11.47014"
       gradientTransform="scale(0.79691682,1.2548361)"
       id="radialGradient-5"
       gradientUnits="userSpaceOnUse">
      <stop
         stop-color="#FFFFFF"
         offset="0%"
         id="stop22" />
      <stop
         stop-color="#FFFFFF"
         stop-opacity="0"
         offset="100%"
         id="stop24" />
    </radialGradient>
    <radialGradient
       cx="122.83476"
       cy="47.937889"
       fx="122.83476"
       fy="47.937889"
       r="11.469978"
       gradientTransform="scale(0.79692807,1.2548184)"
       id="radialGradient-6"
       gradientUnits="userSpaceOnUse">
      <stop
         stop-color="#FFFFFF"
         offset="0%"
         id="stop27" />
      <stop
         stop-color="#FFFFFF"
         stop-opacity="0"
         offset="100%"
         id="stop29" />
    </radialGradient>
    <radialGradient
       cx="146.61044"
       cy="53.977215"
       fx="146.61044"
       fy="53.977215"
       r="11.469978"
       gradientTransform="scale(0.79692806,1.2548184)"
       id="radialGradient-7"
       gradientUnits="userSpaceOnUse">
      <stop
         stop-color="#FFFFFF"
         offset="0%"
         id="stop32" />
      <stop
         stop-color="#FFFFFF"
         stop-opacity="0"
         offset="100%"
         id="stop34" />
    </radialGradient>
    <radialGradient
       cx="177.5184"
       cy="56.996738"
       fx="177.5184"
       fy="56.996738"
       r="11.469978"
       gradientTransform="scale(0.79692806,1.2548184)"
       id="radialGradient-8"
       gradientUnits="userSpaceOnUse">
      <stop
         stop-color="#FFFFFF"
         offset="0%"
         id="stop37" />
      <stop
         stop-color="#FFFFFF"
         stop-opacity="0"
         offset="100%"
         id="stop39" />
    </radialGradient>
    <radialGradient
       cx="208.42645"
       cy="60.016182"
       fx="208.42645"
       fy="60.016182"
       r="11.469978"
       gradientTransform="scale(0.79692806,1.2548184)"
       id="radialGradient-9"
       gradientUnits="userSpaceOnUse">
      <stop
         stop-color="#FFFFFF"
         offset="0%"
         id="stop42" />
      <stop
         stop-color="#FFFFFF"
         stop-opacity="0"
         offset="100%"
         id="stop44" />
    </radialGradient>
    <radialGradient
       cx="239.33449"
       cy="63.035709"
       fx="239.33449"
       fy="63.035709"
       r="11.469978"
       gradientTransform="scale(0.79692806,1.2548184)"
       id="radialGradient-10"
       gradientUnits="userSpaceOnUse">
      <stop
         stop-color="#FFFFFF"
         offset="0%"
         id="stop47" />
      <stop
         stop-color="#FFFFFF"
         stop-opacity="0"
         offset="100%"
         id="stop49" />
    </radialGradient>
    <radialGradient
       cx="270.24606"
       cy="64.544235"
       fx="270.24606"
       fy="64.544235"
       r="11.47014"
       gradientTransform="scale(0.79691682,1.2548361)"
       id="radialGradient-11"
       gradientUnits="userSpaceOnUse">
      <stop
         stop-color="#FFFFFF"
         offset="0%"
         id="stop52" />
      <stop
         stop-color="#FFFFFF"
         stop-opacity="0"
         offset="100%"
         id="stop54" />
    </radialGradient>
    <radialGradient
       cx="301.14984"
       cy="63.034904"
       fx="301.14984"
       fy="63.034904"
       r="11.469978"
       gradientTransform="scale(0.79692806,1.2548184)"
       id="radialGradient-12"
       gradientUnits="userSpaceOnUse">
      <stop
         stop-color="#FFFFFF"
         offset="0%"
         id="stop57" />
      <stop
         stop-color="#FFFFFF"
         stop-opacity="0"
         offset="100%"
         id="stop59" />
    </radialGradient>
    <radialGradient
       cx="332.06226"
       cy="61.523792"
       fx="332.06226"
       fy="61.523792"
       r="11.47014"
       gradientTransform="scale(0.79691682,1.2548361)"
       id="radialGradient-13"
       gradientUnits="userSpaceOnUse">
      <stop
         stop-color="#FFFFFF"
         offset="0%"
         id="stop62" />
      <stop
         stop-color="#FFFFFF"
         stop-opacity="0"
         offset="100%"
         id="stop64" />
    </radialGradient>
    <radialGradient
       cx="362.96512"
       cy="60.014343"
       fx="362.96512"
       fy="60.014343"
       r="11.469978"
       gradientTransform="scale(0.79692806,1.2548184)"
       id="radialGradient-14"
       gradientUnits="userSpaceOnUse">
      <stop
         stop-color="#FFFFFF"
         offset="0%"
         id="stop67" />
      <stop
         stop-color="#FFFFFF"
         stop-opacity="0"
         offset="100%"
         id="stop69" />
    </radialGradient>
    <radialGradient
       cx="391.49515"
       cy="55.484268"
       fx="391.49515"
       fy="55.484268"
       r="11.469978"
       gradientTransform="scale(0.79692806,1.2548184)"
       id="radialGradient-15"
       gradientUnits="userSpaceOnUse">
      <stop
         stop-color="#FFFFFF"
         offset="0%"
         id="stop72" />
      <stop
         stop-color="#FFFFFF"
         stop-opacity="0"
         offset="100%"
         id="stop74" />
    </radialGradient>
    <radialGradient
       cx="422.40231"
       cy="49.444256"
       fx="422.40231"
       fy="49.444256"
       r="11.469978"
       gradientTransform="scale(0.79692806,1.2548184)"
       id="radialGradient-16"
       gradientUnits="userSpaceOnUse">
      <stop
         stop-color="#FFFFFF"
         offset="0%"
         id="stop77" />
      <stop
         stop-color="#FFFFFF"
         stop-opacity="0"
         offset="100%"
         id="stop79" />
    </radialGradient>
    <radialGradient
       cx="453.31592"
       cy="41.893658"
       fx="453.31592"
       fy="41.893658"
       r="11.47014"
       gradientTransform="scale(0.79691682,1.2548361)"
       id="radialGradient-17"
       gradientUnits="userSpaceOnUse">
      <stop
         stop-color="#FFFFFF"
         offset="0%"
         id="stop82" />
      <stop
         stop-color="#FFFFFF"
         stop-opacity="0"
         offset="100%"
         id="stop84" />
    </radialGradient>
    <radialGradient
       cx="484.21661"
       cy="34.344395"
       fx="484.21661"
       fy="34.344395"
       r="11.469978"
       gradientTransform="scale(0.79692806,1.2548184)"
       id="radialGradient-18"
       gradientUnits="userSpaceOnUse">
      <stop
         stop-color="#FFFFFF"
         offset="0%"
         id="stop87" />
      <stop
         stop-color="#FFFFFF"
         stop-opacity="0"
         offset="100%"
         id="stop89" />
    </radialGradient>
    <radialGradient
       cx="515.12378"
       cy="25.284464"
       fx="515.12378"
       fy="25.284464"
       r="11.469978"
       gradientTransform="scale(0.79692806,1.2548184)"
       id="radialGradient-19"
       gradientUnits="userSpaceOnUse">
      <stop
         stop-color="#FFFFFF"
         offset="0%"
         id="stop92" />
      <stop
         stop-color="#FFFFFF"
         stop-opacity="0"
         offset="100%"
         id="stop94" />
    </radialGradient>
    <radialGradient
       cx="548.40814"
       cy="14.714674"
       fx="548.40814"
       fy="14.714674"
       r="11.469978"
       gradientTransform="scale(0.79692806,1.2548184)"
       id="radialGradient-20"
       gradientUnits="userSpaceOnUse">
      <stop
         stop-color="#FFFFFF"
         offset="0%"
         id="stop97" />
      <stop
         stop-color="#FFFFFF"
         stop-opacity="0"
         offset="100%"
         id="stop99" />
    </radialGradient>
    <linearGradient
       x1="374.6593"
       y1="77.392784"
       x2="459.16913"
       y2="25.09432"
       id="linearGradient-21"
       gradientTransform="scale(1.0617844,0.94181079)"
       gradientUnits="userSpaceOnUse">
      <stop
         stop-color="#999999"
         stop-opacity="0.4"
         offset="0%"
         id="stop102" />
      <stop
         stop-color="#9B9B9B"
         stop-opacity="0.3762"
         offset="6.26%"
         id="stop104" />
      <stop
         stop-color="#A6A6A6"
         stop-opacity="0.2054"
         offset="51.21%"
         id="stop106" />
      <stop
         stop-color="#AAAAAA"
         stop-opacity="0.02"
         offset="100%"
         id="stop108" />
    </linearGradient>
    <linearGradient
       x1="86.389542"
       y1="73.3694"
       x2="1.8780069"
       y2="21.068003"
       id="linearGradient-22"
       gradientTransform="scale(1.0617639,0.94182893)"
       gradientUnits="userSpaceOnUse">
      <stop
         stop-color="#999999"
         stop-opacity="0.4"
         offset="0%"
         id="stop111" />
      <stop
         stop-color="#9B9B9B"
         stop-opacity="0.3762"
         offset="6.26%"
         id="stop113" />
      <stop
         stop-color="#A6A6A6"
         stop-opacity="0.2054"
         offset="51.21%"
         id="stop115" />
      <stop
         stop-color="#AAAAAA"
         stop-opacity="0.02"
         offset="100%"
         id="stop117" />
    </linearGradient>
    <linearGradient
       x1="309.55902"
       y1="101.39651"
       x2="296.52942"
       y2="49.359249"
       id="linearGradient-23"
       gradientTransform="scale(1.3225713,0.75610291)"
       gradientUnits="userSpaceOnUse">
      <stop
         stop-color="#000000"
         stop-opacity="0"
         offset="0%"
         id="stop120" />
      <stop
         stop-color="#000000"
         stop-opacity="0.3"
         offset="100%"
         id="stop122" />
    </linearGradient>
    <linearGradient
       x1="82.901154"
       y1="449.90747"
       x2="66.847618"
       y2="289.62799"
       id="linearGradient-24"
       gradientTransform="scale(0.83648297,1.1954816)"
       gradientUnits="userSpaceOnUse">
      <stop
         stop-color="#000000"
         stop-opacity="0"
         offset="0%"
         id="stop125" />
      <stop
         stop-color="#000000"
         stop-opacity="0.3"
         offset="100%"
         id="stop127" />
    </linearGradient>
  </defs>
  <g
     id="Group-new"
     transform="matrix(0.38511516,0,0,0.38511516,-0.14426735,6.3778889)"
     style="fill:none;fill-rule:evenodd;stroke:none;stroke-width:1">
    <g
       id="dart-bird-1"
       transform="translate(128.90593,46.907785)"
       fill-rule="nonzero">
      <g
         id="Group"
         transform="translate(0,20.420513)">
        <path
           d="m 485.93868,580.20949 v 54.95 c 0,0 -47.37,-3.79 -53.05,18.95 -5.68,22.74 36,0 36,0 0,0 -17.05,32.21 -5.68,39.79 11.37,7.58 22.74,-22.74 28.42,-36 5.68,-13.26 15.16,17.05 15.16,17.05 0,0 3.79,11.37 15.16,5.68 11.37,-5.68 0,-17.05 0,-17.05 l -22.74,-30.32 v -54.95 l -13.26,-5.68 v 7.58 z"
           id="Path"
           fill="#6a4a35" />
        <path
           d="m 715.20868,580.20949 v 54.95 c 0,0 47.37,-3.79 53.05,18.95 5.68,22.74 -36,0 -36,0 0,0 17.05,32.21 5.68,39.79 -11.37,7.58 -22.74,-22.74 -28.42,-36 -5.68,-13.26 -15.16,17.05 -15.16,17.05 0,0 -3.79,11.37 -15.16,5.68 -11.37,-5.68 0,-17.05 0,-17.05 l 22.74,-30.32 v -54.95 l 13.26,-5.68 v 7.58 z"
           id="path133"
           fill="#6a4a35" />
        <path
           d="m 335.30868,395.46949 c 0,0 -11.37,208.42 286.1,195.16 297.47,-13.26 248.21,-195.16 248.21,-195.16 0,0 -22.73,-352.420003 -265.25,-348.630003 -242.52,3.790001 -269.06,348.630003 -269.06,348.630003 z"
           id="path135"
           fill="#8adcf6" />
        <path
           d="m 180.88868,333.89949 c 0,0 -47.37,-22.74 -47.37,0 0,22.74 -9.47,37.89 47.37,94.74 56.84,56.85 108,75.79 189.47,75.79 0,0 -51.75,-80.08 -20.19,-194.46 0,0 -53.7,-67.01 -53.7,-85.96 0,-18.95 -24.63,-72 -56.84,-66.32 -32.21,5.68 -20.84,64.42 -20.84,64.42 0,0 -30.32,-39.79 -49.26,-28.42 -18.94,11.37 -26.53,89.05 11.36,140.21 z"
           id="path137"
           fill="#3fb7eb" />
        <path
           d="m 247.20868,284.62949 c 0,0 -15.16,-1.89 -24.63,39.79 0,0 -3.79,45.47 15.16,58.74 18.95,13.27 58.74,-26.53 53.05,-51.16 -5.69,-24.63 -28.42,-47.37 -43.58,-47.37 z"
           id="path139"
           fill="#51c6e5" />
        <path
           d="m 995.62868,451.36949 c 0,0 -115.58,-136.42 -157.26,-157.26 -41.68,-20.84 -15.16,180 11.37,200.84 26.53,20.84 28.42,47.37 89.05,47.37 0,0 9.47,20.84 34.11,11.37 24.63,-9.47 0,-68.21 0,-68.21 0,0 49.25002,13.26 22.73,-34.11 z"
           id="path141"
           fill="#40b7ec" />
        <path
           d="m 400.67868,396.41949 c 0,0 68.21,81.47 202.74,81.47 134.53,0 200.84,-81.47 200.84,-81.47 0,0 32.45,61.79 2.96,145.53 0,0 -61.7,47.73 -203.26,49.21 -165.39,1.72 -203.28,-56.03 -203.28,-56.03 0,0 -37.89,-64.81 0,-138.71 z"
           id="path143"
           fill="#e0e2e2" />
        <path
           d="m 769.78868,183.05949 c 0,0 46.24,35.88 47.67,76.36 1.43,40.48 -25.22,101.55 -82.42,111.92 -57.19,10.36 -132.67,-22.35 -128.19,-113.68 0,0 -1.01,-5.91 20.9,-48.54 z"
           id="path145"
           fill="#40b7ed" />
        <path
           d="m 444.38868,183.05949 c 0,0 -46.24,35.88 -47.67,76.36 -1.43,40.48 25.22,101.55 82.42,111.92 57.19,10.36 132.67,-22.35 128.19,-113.68 0,0 1.01,-5.91 -20.9,-48.54 z"
           id="path147"
           fill="#40b7ed" />
        <g
           transform="translate(459.64965,227.15949)"
           id="g152">
          <path
             d="m 41.109029,94.46 c -11.78,0 -21.24,-3.97 -28.11,-11.8 C 4.1290287,72.55 0.35902873,56.63 2.6590287,38.97 5.4090287,17.89 23.559029,1.99 44.869029,1.99 c 4.25,0 8.48,0.64 12.59,1.91 l 6.17,1.9 c 15.88,4.89 27.52,18.51 29.67,34.71 2.71,20.44 -2.38,46.24 -42.04,53.04 -3.52,0.6 -6.93,0.91 -10.15,0.91 z"
             id="path149"
             fill="#000000" />
          <path
             d="m 44.869029,4 c 3.96,0 7.99,0.58 12,1.82 l 6.17,1.9 c 15.03,4.62 26.21,17.47 28.28,33.06 2.62,19.77 -2.43,44.3 -40.4,50.81 -3.49,0.6 -6.76,0.88 -9.81,0.88 C 10.799029,92.47 1.3290287,64.6 4.6390287,39.24 7.3490287,18.5 25.139029,4 44.869029,4 m 0.01,-4 V 4 0 c 0,0 -0.01,0 0,0 C 22.559029,0 3.5590287,16.65 0.67902873,38.72 -1.7009713,56.95 2.2390287,73.45 11.499029,83.98 c 7.17,8.16 17.41,12.48 29.62,12.48 3.33,0 6.85,-0.32 10.49,-0.94 18.29,-3.14 31.13,-10.64 38.17,-22.3 5.38,-8.92 7.24,-20.01 5.52,-32.97 -2.25,-16.97 -14.44,-31.24 -31.06,-36.36 l -6.17,-1.9 c -4.32,-1.32 -8.75,-1.99 -13.19,-1.99 z"
             id="Shape"
             fill="#00ffc2" />
        </g>
        <circle
           id="Oval"
           fill="#ffffff"
           cx="494.78867"
           cy="246.73949"
           r="9.4700003" />
        <circle
           id="circle155"
           fill="#ffffff"
           cx="503.99869"
           cy="272.31949"
           r="14.21" />
        <g
           transform="translate(654.53806,227.15949)"
           id="g161">
          <path
             d="m 54.800611,94.46 c -3.21,0 -6.63,-0.31 -10.15,-0.91 C 4.9906108,86.75 -0.09938918,60.95 2.6106108,40.51 4.7606108,24.31 16.400611,10.69 32.280611,5.8 l 6.17,-1.9 c 4.11,-1.26 8.34,-1.91 12.59,-1.91 21.31,0 39.46,15.9 42.21,36.98 2.3,17.66 -1.46,33.58 -10.34,43.69 -6.87,7.83 -16.33,11.8 -28.11,11.8 0,0 0,0 0,0 z"
             id="path157"
             fill="#000000" />
          <path
             d="m 51.030611,4 c 19.73,0 37.52,14.5 40.23,35.24 3.31,25.35 -6.15,53.23 -36.47,53.23 -3.06,0 -6.33,-0.28 -9.81,-0.88 C 7.0106108,85.08 1.9606108,60.56 4.5806108,40.78 6.6506108,25.2 17.830611,12.34 32.860611,7.72 l 6.17,-1.9 c 4.01,-1.24 8.05,-1.82 12,-1.82 m 0,-4 c -4.45,0 -8.88,0.67 -13.18,1.99 l -6.17,1.9 C 15.060611,9 2.8606108,23.28 0.62061082,40.25 c -1.72000002,12.96 0.14,24.05 5.51999998,32.97 7.0400002,11.66 19.8800002,19.17 38.1700002,22.3 3.63,0.62 7.16,0.94 10.49,0.94 12.21,0 22.45,-4.32 29.62,-12.48 9.25,-10.54 13.2,-27.04 10.82,-45.26 -2.89,-22.08 -21.89,-38.72 -44.21,-38.72 z"
             id="path159"
             fill="#00ffc2" />
        </g>
        <circle
           id="circle163"
           fill="#ffffff"
           cx="698.30865"
           cy="246.73949"
           r="9.4700003" />
        <circle
           id="circle165"
           fill="#ffffff"
           cx="712.4187"
           cy="272.31949"
           r="14.21" />
        <path
           d="m 605.09868,280.41949 c 0,0 -37.89,5.68 -37.89,41.68 l 45.47,187.58 32.21,-197.05 c 0,0 -9.47,-32.21 -39.79,-32.21 z"
           id="path167"
           fill="#6a4a35" />
      </g>
    </g>
    <g
       id="dart-bird-copy"
       transform="translate(728.90593,46.907785)"
       fill-rule="nonzero">
      <g
         id="g207"
         transform="translate(0,20.420513)">
        <path
           d="m 485.93868,580.20949 v 54.95 c 0,0 -47.37,-3.79 -53.05,18.95 -5.68,22.74 36,0 36,0 0,0 -17.05,32.21 -5.68,39.79 11.37,7.58 22.74,-22.74 28.42,-36 5.68,-13.26 15.16,17.05 15.16,17.05 0,0 3.79,11.37 15.16,5.68 11.37,-5.68 0,-17.05 0,-17.05 l -22.74,-30.32 v -54.95 l -13.26,-5.68 v 7.58 z"
           id="path171"
           fill="#6a4a35" />
        <path
           d="m 715.20868,580.20949 v 54.95 c 0,0 47.37,-3.79 53.05,18.95 5.68,22.74 -36,0 -36,0 0,0 17.05,32.21 5.68,39.79 -11.37,7.58 -22.74,-22.74 -28.42,-36 -5.68,-13.26 -15.16,17.05 -15.16,17.05 0,0 -3.79,11.37 -15.16,5.68 -11.37,-5.68 0,-17.05 0,-17.05 l 22.74,-30.32 v -54.95 l 13.26,-5.68 v 7.58 z"
           id="path173"
           fill="#6a4a35" />
        <path
           d="m 335.30868,395.46949 c 0,0 -11.37,208.42 286.1,195.16 297.47,-13.26 248.21,-195.16 248.21,-195.16 0,0 -22.73,-352.420003 -265.25,-348.630003 -242.52,3.790001 -269.06,348.630003 -269.06,348.630003 z"
           id="path175"
           fill="#8adcf6" />
        <path
           d="m 995.62868,451.36949 c 0,0 -115.58,-136.42 -157.26,-157.26 -41.68,-20.84 -15.16,180 11.37,200.84 26.53,20.84 28.42,47.37 89.05,47.37 0,0 9.47,20.84 34.11,11.37 24.63,-9.47 0,-68.21 0,-68.21 0,0 49.25002,13.26 22.73,-34.11 z"
           id="path177"
           fill="#40b7ec" />
        <path
           d="m 400.67868,396.41949 c 0,0 68.21,81.47 202.74,81.47 134.53,0 200.84,-81.47 200.84,-81.47 0,0 32.45,61.79 2.96,145.53 0,0 -61.7,47.73 -203.26,49.21 -165.39,1.72 -203.28,-56.03 -203.28,-56.03 0,0 -37.89,-64.81 0,-138.71 z"
           id="path179"
           fill="#e0e2e2" />
        <path
           d="m 769.78868,183.05949 c 0,0 46.24,35.88 47.67,76.36 1.43,40.48 -25.22,101.55 -82.42,111.92 -57.19,10.36 -132.67,-22.35 -128.19,-113.68 0,0 -1.01,-5.91 20.9,-48.54 z"
           id="path181"
           fill="#40b7ed" />
        <path
           d="m 444.38868,183.05949 c 0,0 -46.24,35.88 -47.67,76.36 -1.43,40.48 25.22,101.55 82.42,111.92 57.19,10.36 132.67,-22.35 128.19,-113.68 0,0 1.01,-5.91 -20.9,-48.54 z"
           id="path183"
           fill="#40b7ed" />
        <g
           transform="translate(459.64965,227.15949)"
           id="g189">
          <path
             d="m 41.109029,94.46 c -11.78,0 -21.24,-3.97 -28.11,-11.8 C 4.1290287,72.55 0.35902873,56.63 2.6590287,38.97 5.4090287,17.89 23.559029,1.99 44.869029,1.99 c 4.25,0 8.48,0.64 12.59,1.91 l 6.17,1.9 c 15.88,4.89 27.52,18.51 29.67,34.71 2.71,20.44 -2.38,46.24 -42.04,53.04 -3.52,0.6 -6.93,0.91 -10.15,0.91 z"
             id="path185"
             fill="#000000" />
          <path
             d="m 44.869029,4 c 3.96,0 7.99,0.58 12,1.82 l 6.17,1.9 c 15.03,4.62 26.21,17.47 28.28,33.06 2.62,19.77 -2.43,44.3 -40.4,50.81 -3.49,0.6 -6.76,0.88 -9.81,0.88 C 10.799029,92.47 1.3290287,64.6 4.6390287,39.24 7.3490287,18.5 25.139029,4 44.869029,4 m 0.01,-4 V 4 0 c 0,0 -0.01,0 0,0 C 22.559029,0 3.5590287,16.65 0.67902873,38.72 -1.7009713,56.95 2.2390287,73.45 11.499029,83.98 c 7.17,8.16 17.41,12.48 29.62,12.48 3.33,0 6.85,-0.32 10.49,-0.94 18.29,-3.14 31.13,-10.64 38.17,-22.3 5.38,-8.92 7.24,-20.01 5.52,-32.97 -2.25,-16.97 -14.44,-31.24 -31.06,-36.36 l -6.17,-1.9 c -4.32,-1.32 -8.75,-1.99 -13.19,-1.99 z"
             id="path187"
             fill="#00ffc2" />
        </g>
        <circle
           id="circle191"
           fill="#ffffff"
           cx="506.78867"
           cy="246.73949"
           r="9.4700003" />
        <circle
           id="circle193"
           fill="#ffffff"
           cx="520.99866"
           cy="272.31949"
           r="14.21" />
        <g
           transform="translate(654.53806,227.15949)"
           id="g199">
          <path
             d="m 54.800611,94.46 c -3.21,0 -6.63,-0.31 -10.15,-0.91 C 4.9906108,86.75 -0.09938918,60.95 2.6106108,40.51 4.7606108,24.31 16.400611,10.69 32.280611,5.8 l 6.17,-1.9 c 4.11,-1.26 8.34,-1.91 12.59,-1.91 21.31,0 39.46,15.9 42.21,36.98 2.3,17.66 -1.46,33.58 -10.34,43.69 -6.87,7.83 -16.33,11.8 -28.11,11.8 0,0 0,0 0,0 z"
             id="path195"
             fill="#000000" />
          <path
             d="m 51.030611,4 c 19.73,0 37.52,14.5 40.23,35.24 3.31,25.35 -6.15,53.23 -36.47,53.23 -3.06,0 -6.33,-0.28 -9.81,-0.88 C 7.0106108,85.08 1.9606108,60.56 4.5806108,40.78 6.6506108,25.2 17.830611,12.34 32.860611,7.72 l 6.17,-1.9 c 4.01,-1.24 8.05,-1.82 12,-1.82 m 0,-4 c -4.45,0 -8.88,0.67 -13.18,1.99 l -6.17,1.9 C 15.060611,9 2.8606108,23.28 0.62061082,40.25 c -1.72000002,12.96 0.14,24.05 5.51999998,32.97 7.0400002,11.66 19.8800002,19.17 38.1700002,22.3 3.63,0.62 7.16,0.94 10.49,0.94 12.21,0 22.45,-4.32 29.62,-12.48 9.25,-10.54 13.2,-27.04 10.82,-45.26 -2.89,-22.08 -21.89,-38.72 -44.21,-38.72 z"
             id="path197"
             fill="#00ffc2" />
        </g>
        <circle
           id="circle201"
           fill="#ffffff"
           cx="708.30865"
           cy="246.73949"
           r="9.4700003" />
        <circle
           id="circle203"
           fill="#ffffff"
           cx="724.4187"
           cy="272.31949"
           r="14.21" />
        <path
           d="m 602.09868,288.41949 c 0,0 -37.89,5.68 -37.89,41.68 l 45.47,187.58 32.21,-197.05 c 0,0 -9.47,-32.21 -39.79,-32.21 z"
           id="path205"
           fill="#6a4a35" />
      </g>
      <g
         id="g231"
         transform="translate(296.59649,148.95512)">
        <path
           d="m 121.72219,0.06488292 c 0,0 -43.850001,-4.43000002 -26.860001,59.92000008 0.01,0 42.820001,-15.32 26.860001,-59.92000008 z"
           id="path209"
           fill="#c14000" />
        <path
           d="m 70.562189,127.01488 c 0,0 -43.85,-4.43 -26.86,59.92 0.01,0 42.82,-15.32 26.86,-59.92 z"
           id="path211"
           fill="#c14000" />
        <path
           d="m 53.512189,208.48488 c 0,0 -43.8500004,-4.43 -26.86,59.92 0,0 42.82,-15.32 26.86,-59.92 z"
           id="path213"
           fill="#c14000" />
        <path
           d="m 112.25219,51.224883 c 0,0 -43.850001,-4.43 -26.860001,59.919997 0,0 42.820001,-15.319997 26.860001,-59.919997 z"
           id="path215"
           fill="#c14000" />
        <path
           d="m 108.46219,26.594883 c 0,0 -43.850001,-4.43 -26.860001,59.92 0,0 42.820001,-15.32 26.860001,-59.92 z"
           id="path217"
           fill="#8c2400" />
        <path
           d="m 91.412189,108.06488 c 0,0 -43.85,-4.43 -26.86,59.92 0,0 42.810001,-15.32 26.86,-59.92 z"
           id="path219"
           fill="#8c2400" />
        <path
           d="m 47.832189,181.95488 c 0,0 -43.8500004,-4.43 -26.86,59.92 0,0 42.82,-15.32 26.86,-59.92 z"
           id="path221"
           fill="#8c2400" />
        <path
           d="m 125.51219,15.224883 c 0,0 -43.850001,-4.43 -26.860001,59.92 0,0 42.820001,-15.32 26.860001,-59.92 z"
           id="path223"
           fill="#e24500" />
        <path
           d="m 87.622189,72.064883 c 0,0 -43.85,-4.43 -26.86,59.919997 0,0 42.820001,-15.32 26.86,-59.919997 z"
           id="path225"
           fill="#e24500" />
        <path
           d="m 74.352189,159.22488 c 0,0 -43.85,-4.43 -26.86,59.92 0.01,0 42.82,-15.32 26.86,-59.92 z"
           id="path227"
           fill="#e24500" />
        <path
           d="m 30.772189,229.32488 c 0,0 -43.85,-4.43 -26.8600004,59.92 0.01,0 42.8200004,-15.32 26.8600004,-59.92 z"
           id="path229"
           fill="#e24500" />
      </g>
      <g
         id="g255"
         transform="translate(783.54829,135.69512)">
        <path
           d="m 7.3503895,0.06488292 c 0,0 43.8499995,-4.43000002 26.8599995,59.92000008 0,0 -42.8099995,-15.32 -26.8599995,-59.92000008 z"
           id="path233"
           fill="#c14000" />
        <path
           d="m 58.51039,127.00488 c 0,0 43.85,-4.43 26.86,59.92 0,0 -42.82,-15.32 -26.86,-59.92 z"
           id="path235"
           fill="#c14000" />
        <path
           d="m 75.560389,208.48488 c 0,0 43.850001,-4.43 26.860001,59.92 0,0 -42.810001,-15.32 -26.860001,-59.92 z"
           id="path237"
           fill="#c14000" />
        <path
           d="m 16.830389,51.214883 c 0,0 43.85,-4.43 26.860001,59.919997 -0.01,0 -42.82000054,-15.319997 -26.860001,-59.919997 z"
           id="path239"
           fill="#c14000" />
        <path
           d="m 20.62039,26.584883 c 0,0 43.849999,-4.43 26.859999,59.92 -0.01,0 -42.8199995,-15.32 -26.859999,-59.92 z"
           id="path241"
           fill="#8c2400" />
        <path
           d="m 37.670389,108.06488 c 0,0 43.85,-4.43 26.86,59.92 0,0 -42.819999,-15.32 -26.86,-59.92 z"
           id="path243"
           fill="#8c2400" />
        <path
           d="m 81.250389,181.95488 c 0,0 43.850001,-4.43 26.860001,59.92 -0.01,0 -42.82,-15.32 -26.860001,-59.92 z"
           id="path245"
           fill="#8c2400" />
        <path
           d="m 3.5603895,15.214883 c 0,0 43.8499995,-4.43 26.8599995,59.92 0,0 -42.81,-15.32 -26.8599995,-59.92 z"
           id="path247"
           fill="#e24500" />
        <path
           d="m 41.460389,72.064883 c 0,0 43.85,-4.43 26.860001,59.919997 0,0 -42.820001,-15.32 -26.860001,-59.919997 z"
           id="path249"
           fill="#e24500" />
        <path
           d="m 54.72039,159.21488 c 0,0 43.85,-4.43 26.859999,59.92 0,0 -42.819999,-15.32 -26.859999,-59.92 z"
           id="path251"
           fill="#e24500" />
        <path
           d="m 98.300389,229.32488 c 0,0 43.850001,-4.43 26.860001,59.92 0,0 -42.820001,-15.32 -26.860001,-59.92 z"
           id="path253"
           fill="#e24500" />
      </g>
      <g
         id="g323"
         transform="translate(362.08868)">
        <g
           transform="translate(17.75)"
           id="g265">
          <path
             d="m 5.68,162.95 c 0,0 223.58,145.89 439.58,-7.58 0,0 1.89,-151.58 -216,-151.58 C 11.37,3.79 5.68,162.95 5.68,162.95 Z"
             fill="#998b77"
             id="path257" />
          <path
             d="M 5.68,132.63 C 5.68,132.63 11.36,0 223.57,0 435.78,0 449.04,132.63 449.04,132.63 l -22.74,15.16 c 0,0 3.79,-126.95 -200.84,-126.95 -204.63,0 -204.62,121.27 -204.62,121.27 z"
             fill="#b7b7b7"
             id="path259" />
          <path
             d="m 217.89,20.84 c 0,0 -15.16,53.05 -13.26,185.68 h 36 c 0,0 -9.47,-151.58 9.47,-193.26 z"
             fill="#b7b7b7"
             id="path261" />
          <path
             d="m 0,128.84 c 0,0 229.26,166.74 452.84,0 0,0 11.37,20.84 7.58,36 C 456.63,180 204.63,325.89 0,164.84 Z"
             fill="#a0a0a0"
             id="path263" />
        </g>
        <g
           transform="translate(23.335404,143.00387)"
           id="g307">
          <path
             d="m 13.834596,11.276128 c 0.32,-6.0199997 -2.52,-11.0699997 -6.3300002,-11.2699997 -3.81,-0.2 -7.15999997,4.52 -7.47999997,10.5399997 -0.32,6.02 2.51999997,11.07 6.32999997,11.27 3.8200002,0.2 7.1700002,-4.52 7.4800002,-10.54 z"
             fill="url(#radialGradient-1)"
             id="path267"
             style="fill:url(#radialGradient-1)" />
          <path
             d="m 30.894596,24.536128 c 0.32,-6.02 -2.52,-11.07 -6.33,-11.27 -3.81,-0.2 -7.16,4.52 -7.48,10.54 -0.32,6.02 2.52,11.07 6.33,11.27 3.81,0.2 7.16,-4.52 7.48,-10.54 z"
             fill="url(#radialGradient-2)"
             id="path269"
             style="fill:url(#radialGradient-2)" />
          <path
             d="m 47.944596,37.806128 c 0.32,-6.02 -2.52,-11.07 -6.33,-11.27 -3.81,-0.2 -7.16,4.52 -7.48,10.54 -0.32,6.02 2.52,11.07 6.33,11.27 3.81,0.2 7.16,-4.52 7.48,-10.54 z"
             fill="url(#radialGradient-3)"
             id="path271"
             style="fill:url(#radialGradient-3)" />
          <path
             d="m 66.894596,45.376128 c 0.32,-6.02 -2.52,-11.07 -6.33,-11.27 -3.81,-0.2 -7.16,4.52 -7.48,10.54 -0.32,6.02 2.52,11.07 6.33,11.27 3.81,0.21 7.16,-4.51 7.48,-10.54 z"
             fill="url(#radialGradient-4)"
             id="path273"
             style="fill:url(#radialGradient-4)" />
          <path
             d="m 85.834596,52.956128 c 0.32,-6.02 -2.52,-11.07 -6.33,-11.27 -3.81,-0.2 -7.16,4.52 -7.48,10.54 -0.32,6.02 2.52,11.07 6.33,11.27 3.82,0.21 7.17,-4.51 7.48,-10.54 z"
             fill="url(#radialGradient-5)"
             id="path275"
             style="fill:url(#radialGradient-5)" />
          <path
             d="m 104.7846,60.536128 c 0.32,-6.02 -2.52,-11.07 -6.330004,-11.27 -3.81,-0.2 -7.16,4.52 -7.48,10.54 -0.32,6.02 2.52,11.07 6.33,11.27 3.820004,0.2 7.160004,-4.52 7.480004,-10.54 z"
             fill="url(#radialGradient-6)"
             id="path277"
             style="fill:url(#radialGradient-6)" />
          <path
             d="m 123.7346,68.116128 c 0.32,-6.02 -2.52,-11.07 -6.33,-11.27 -3.81,-0.2 -7.16,4.52 -7.48,10.54 -0.32,6.02 2.52,11.07 6.33,11.27 3.81,0.2 7.16,-4.52 7.48,-10.54 z"
             fill="url(#radialGradient-7)"
             id="path279"
             style="fill:url(#radialGradient-7)" />
          <path
             d="m 148.3646,71.906128 c 0.32,-6.02 -2.52,-11.07 -6.33,-11.27 -3.81,-0.2 -7.16,4.52 -7.48,10.54 -0.32,6.02 2.52,11.07 6.33,11.27 3.82,0.2 7.16,-4.52 7.48,-10.54 z"
             fill="url(#radialGradient-8)"
             id="path281"
             style="fill:url(#radialGradient-8)" />
          <path
             d="m 172.9946,75.696128 c 0.32,-6.02 -2.52,-11.07 -6.33,-11.27 -3.81,-0.2 -7.16,4.52 -7.48,10.54 -0.32,6.02 2.52,11.07 6.33,11.27 3.82,0.2 7.16,-4.52 7.48,-10.54 z"
             fill="url(#radialGradient-9)"
             id="path283"
             style="fill:url(#radialGradient-9)" />
          <path
             d="m 197.6246,79.486128 c 0.32,-6.02 -2.52,-11.07 -6.33,-11.27 -3.81,-0.2 -7.16,4.52 -7.48,10.54 -0.32,6.02 2.52,11.07 6.33,11.27 3.82,0.2 7.17,-4.52 7.48,-10.54 z"
             fill="url(#radialGradient-10)"
             id="path285"
             style="fill:url(#radialGradient-10)" />
          <path
             d="m 222.2546,81.376128 c 0.32,-6.02 -2.52,-11.07 -6.33,-11.27 -3.81,-0.2 -7.16,4.52 -7.48,10.54 -0.32,6.02 2.52,11.07 6.33,11.27 3.82,0.21 7.17,-4.51 7.48,-10.54 z"
             fill="url(#radialGradient-11)"
             id="path287"
             style="fill:url(#radialGradient-11)" />
          <path
             d="m 246.8946,79.486128 c 0.32,-6.02 -2.52,-11.07 -6.33,-11.27 -3.81,-0.2 -7.16,4.52 -7.48,10.54 -0.32,6.02 2.52,11.07 6.33,11.27 3.81,0.2 7.16,-4.52 7.48,-10.54 z"
             fill="url(#radialGradient-12)"
             id="path289"
             style="fill:url(#radialGradient-12)" />
          <path
             d="m 271.5246,77.586128 c 0.32,-6.02 -2.52,-11.07 -6.33,-11.27 -3.81,-0.2 -7.16,4.52 -7.48,10.54 -0.32,6.02 2.52,11.07 6.33,11.27 3.81,0.21 7.16,-4.51 7.48,-10.54 z"
             fill="url(#radialGradient-13)"
             id="path291"
             style="fill:url(#radialGradient-13)" />
          <path
             d="m 296.1546,75.696128 c 0.32,-6.02 -2.52,-11.07 -6.33,-11.27 -3.81,-0.2 -7.16,4.52 -7.48,10.54 -0.32,6.02 2.52,11.07 6.33,11.27 3.81,0.2 7.16,-4.52 7.48,-10.54 z"
             fill="url(#radialGradient-14)"
             id="path293"
             style="fill:url(#radialGradient-14)" />
          <path
             d="m 318.8946,70.016128 c 0.32,-6.02 -2.52,-11.07 -6.33,-11.27 -3.81,-0.2 -7.16,4.52 -7.48,10.54 -0.32,6.02 2.52,11.07 6.33,11.27 3.81,0.2 7.16,-4.52 7.48,-10.54 z"
             fill="url(#radialGradient-15)"
             id="path295"
             style="fill:url(#radialGradient-15)" />
          <path
             d="m 343.5246,62.436128 c 0.32,-6.02 -2.52,-11.07 -6.33,-11.27 -3.81,-0.2 -7.16,4.52 -7.48,10.54 -0.32,6.02 2.52,11.07 6.33,11.27 3.81,0.2 7.16,-4.52 7.48,-10.54 z"
             fill="url(#radialGradient-16)"
             id="path297"
             style="fill:url(#radialGradient-16)" />
          <path
             d="m 368.1546,52.956128 c 0.32,-6.02 -2.52,-11.07 -6.33,-11.27 -3.81,-0.2 -7.16,4.52 -7.48,10.54 -0.32,6.02 2.52,11.07 6.33,11.27 3.81,0.21 7.16,-4.51 7.48,-10.54 z"
             fill="url(#radialGradient-17)"
             id="path299"
             style="fill:url(#radialGradient-17)" />
          <path
             d="m 392.7846,43.486128 c 0.32,-6.02 -2.52,-11.07 -6.33,-11.27 -3.81,-0.2 -7.16,4.52 -7.48,10.54 -0.32,6.02 2.52,11.07 6.33,11.27 3.82,0.2 7.16,-4.52 7.48,-10.54 z"
             fill="url(#radialGradient-18)"
             id="path301"
             style="fill:url(#radialGradient-18)" />
          <path
             d="m 417.4146,32.116128 c 0.32,-6.02 -2.52,-11.07 -6.33,-11.27 -3.81,-0.2 -7.16,4.52 -7.48,10.54 -0.32,6.02 2.52,11.07 6.33,11.27 3.82,0.2 7.16,-4.52 7.48,-10.54 z"
             fill="url(#radialGradient-19)"
             id="path303"
             style="fill:url(#radialGradient-19)" />
          <path
             d="m 443.9446,18.856128 c 0.32,-6.02 -2.52,-11.0699997 -6.33,-11.2699997 -3.81,-0.2 -7.16,4.5199997 -7.48,10.5399997 -0.32,6.02 2.52,11.07 6.33,11.27 3.81,0.2 7.16,-4.52 7.48,-10.54 z"
             fill="url(#radialGradient-20)"
             id="path305"
             style="fill:url(#radialGradient-20)" />
        </g>
        <g
           transform="translate(0,9.47)"
           id="g321">
          <path
             d="m 421.33,98.53 c 0,0 54.95,-18.95 68.21,-94.74 0,0 -53.05,39.79 -102.32,43.58 0,0 -22.73,37.9 34.11,51.16 z"
             fill="#ffe7b3"
             id="path309" />
          <path
             d="m 421.33,98.53 c 0,0 54.95,-18.95 68.21,-94.74 0,0 -53.05,39.79 -102.32,43.58 0,0 -22.73,37.9 34.11,51.16 z"
             fill="url(#linearGradient-21)"
             id="path311"
             style="fill:url(#linearGradient-21)" />
          <path
             d="M 68.21,94.74 C 68.21,94.74 13.26,75.79 0,0 c 0,0 53.05,39.79 102.32,43.58 -0.01,0 22.73,37.9 -34.11,51.16 z"
             fill="#ffe7b3"
             id="path313" />
          <path
             d="M 68.21,94.74 C 68.21,94.74 13.26,75.79 0,0 c 0,0 53.05,39.79 102.32,43.58 -0.01,0 22.73,37.9 -34.11,51.16 z"
             fill="url(#linearGradient-22)"
             id="path315"
             style="fill:url(#linearGradient-22)" />
          <path
             d="m 382.65,47.86 c 0,0 -17.59,38.58 32.24,52.35 0,0 14.65,2.76 2.93,-2.76 -11.72,-5.52 -35.17,-13.78 -32.24,-46.84 0,0 2.94,-13.77 -2.93,-2.75 z"
             fill="#a0a0a0"
             id="path317" />
          <path
             d="m 104.83,44.07 c 0,0 17.59,38.58 -32.24,52.35 0,0 -14.65,2.76 -2.93,-2.76 11.72,-5.51 35.17,-13.78 32.24,-46.84 0,0 -2.93,-13.77 2.93,-2.75 z"
             fill="#a0a0a0"
             id="path319" />
        </g>
      </g>
    </g>
    <g
       id="horn-1"
       transform="translate(0.374608,0.787785)"
       fill-rule="nonzero">
      <g
         id="g336">
        <path
           d="m 51.850025,47.117695 c 8.203824,14.659725 20.32755,34.851756 36.690806,58.528075 46.426189,72.10173 140.543769,191.82208 294.525289,277.45314 -4.47481,7.95269 -6.53021,17.77608 -7.4669,25.10816 C 275.12013,394.88166 135.30441,365.04799 46.647167,298.68691 34.248205,264.24742 11.496798,173.86425 51.850025,47.117695 Z"
           id="path326"
           fill="#055799" />
        <path
           d="m 392.49075,409.85169 c 0.82571,-7.55816 4.31056,-14.939 7.18279,-19.93492 17.76163,8.48907 36.2957,16.57475 55.63329,24.15507 -0.40842,0.49649 -0.76356,1.00185 -1.09207,1.5072 -17.51303,-1.28111 -38.48428,-3.11635 -61.72401,-5.72735 z"
           id="path328"
           fill="#055799" />
        <path
           d="m 377.7434,408.34892 c 0.0755,-0.78906 0.16869,-1.64905 0.28411,-2.55337 0.71473,-5.60767 2.28624,-13.11263 5.7045,-19.19019 0.60375,-1.07277 1.25632,-2.10121 1.97993,-3.06759 7.83092,-10.42627 10.72979,-6.08199 6.37039,-0.91762 -0.57266,0.67824 -1.13202,1.34761 -1.58926,2.10565 -0.57267,0.94865 -1.42058,2.42925 -2.35727,4.28221 -2.19745,4.35758 -4.86103,10.79421 -5.49141,17.38155 -0.12431,1.31215 -0.17314,2.62874 -0.11987,3.94089 0.0755,1.76431 0.47057,3.50645 1.12315,5.14664 0.73692,1.84853 1.45165,4.45067 -1.20749,2.78388 -3.32504,-2.08791 -5.06968,-5.99333 -4.69678,-9.91205 z"
           id="path330"
           fill="#07c6f9" />
        <path
           d="m 385.09044,410.22849 c 0.0755,-0.7137 0.16869,-1.48947 0.28411,-2.30513 0.71473,-5.06241 2.28624,-11.84481 5.7045,-17.33722 0.60375,-0.96638 1.25632,-1.90173 1.97993,-2.77058 7.83092,-9.41556 10.72979,-5.49242 6.37039,-0.82896 -0.57267,0.61174 -1.13202,1.21905 -1.58926,1.90173 -0.57267,0.85555 -1.42058,2.1943 -2.35727,3.86552 -2.19745,3.93645 -4.86103,9.74803 -5.49142,15.70146 -0.1243,1.1836 -0.17313,2.37606 -0.11986,3.55965 0.0755,1.59586 0.47057,3.16955 1.12315,4.65015 0.73692,1.67122 1.45165,4.02068 -1.20749,2.51791 -3.32948,-1.88843 -5.07412,-5.41705 -4.69678,-8.95453 z"
           id="path332"
           fill="#07c6f9" />
        <path
           d="m 24.104407,0 c 0,0 4.310559,9.9475122 13.286821,26.872468 C -2.9619989,160.67183 19.789408,256.08195 32.18837,292.43647 c -2.739047,-2.16328 -5.44702,-4.35758 -8.083963,-6.59621 0,0 -54.234915,-110.52644 0,-285.84026 z"
           id="path334"
           fill="#055799" />
      </g>
    </g>
    <g
       id="horn-copy"
       transform="translate(1603.3746,106.78779)">
      <g
         id="g351">
        <path
           d="m 423.15094,47.118184 c -8.20367,14.659877 -20.32717,34.852118 -36.69012,58.528686 -46.42532,72.10248 -140.54113,191.82407 -294.519779,277.45602 4.47473,7.95277 6.530087,17.77626 7.466761,25.10842 C 199.88502,394.88576 339.69812,365.05178 428.3537,298.69001 440.75243,264.25016 463.50342,173.86605 423.15094,47.118184 Z"
           id="path339"
           fill="#07c6f9"
           fill-rule="nonzero" />
        <path
           d="m 82.516586,409.85594 c -0.825695,-7.55823 -4.310479,-14.93915 -7.182652,-19.93512 -17.761303,8.48916 -36.29503,16.57492 -55.632254,24.15532 0.408408,0.4965 0.763545,1.00186 1.092047,1.50722 17.512707,-1.28113 38.483563,-3.11639 61.722859,-5.72742 z"
           id="path341"
           fill="#07c6f9"
           fill-rule="nonzero" />
        <g
           transform="translate(0,407.44269)"
           id="g343" />
        <path
           d="m 97.263661,408.35316 c -0.07547,-0.78907 -0.16869,-1.64907 -0.28411,-2.5534 -0.714714,-5.60772 -2.286196,-13.11276 -5.704392,-19.19038 -0.603734,-1.07279 -1.256298,-2.10124 -1.979891,-3.06763 -7.830777,-10.42638 -10.729585,-6.08205 -6.370275,-0.91763 0.572659,0.67825 1.132001,1.34763 1.58924,2.10567 0.572659,0.94866 1.420549,2.42928 2.357223,4.28226 2.197412,4.35763 4.860942,10.79432 5.491311,17.38173 0.124298,1.31217 0.173129,2.62876 0.119858,3.94093 -0.07547,1.76432 -0.470557,3.50649 -1.123121,5.14669 -0.73691,1.84855 -1.451624,4.45072 1.207466,2.78391 3.324973,-2.08793 5.069585,-5.99339 4.696691,-9.91215 z"
           id="path345"
           fill="#055799"
           fill-rule="nonzero" />
        <path
           d="m 89.916759,410.23275 c -0.07547,-0.71371 -0.168691,-1.48949 -0.28411,-2.30515 -0.714714,-5.06247 -2.286196,-11.84494 -5.704393,-17.3374 -0.603733,-0.96639 -1.256298,-1.90175 -1.97989,-2.77062 -7.830777,-9.41566 -10.729585,-5.49247 -6.370275,-0.82897 0.572659,0.61176 1.132,1.21907 1.589239,1.90175 0.572659,0.85557 1.420549,2.19433 2.357224,3.86556 2.197412,3.93649 4.860942,9.74814 5.49131,15.70163 0.124298,1.18361 0.17313,2.37608 0.119859,3.55969 -0.07547,1.59587 -0.470557,3.16958 -1.123122,4.6502 -0.73691,1.67123 -1.451623,4.02072 1.207467,2.51793 3.329412,-1.88845 5.074024,-5.4171 4.696691,-8.95462 z"
           id="path347"
           fill="#055799"
           fill-rule="nonzero" />
        <path
           d="m 450.89604,0 c 0,0 -4.31048,9.9476155 -13.28657,26.872747 40.35247,133.800743 17.60149,229.211853 5.20276,265.566753 2.739,-2.16329 5.44692,-4.35762 8.08381,-6.59628 0,0 54.23391,-110.52758 0,-285.84322 z"
           id="path349"
           fill="#07c6f9"
           fill-rule="nonzero" />
      </g>
    </g>
  </g>
  <g
     id="helmet-1"
     transform="matrix(0.25265828,0.2906501,-0.2906501,0.25265828,290.40661,-90.068867)"
     fill-rule="nonzero"
     style="fill:none;stroke:none;stroke-width:1">
    <g
       id="g387">
      <path
         d="m 300.65975,13.735014 c 0,0 120.3,24.9 99.8,100.099996 0,0 60.2,-16.799996 99.2,-9.4 0,0 11.8,-149.599996 -199,-90.699996 z"
         id="path355"
         fill="#f9cb7a" />
      <path
         d="m 3.2597482,352.73501 c 0,0 43.7999998,112.1 116.8000018,80.7 0,0 -7.7,60.7 5.8,97.1 0,0 -149.600002,34.5 -122.6000018,-177.8 z"
         id="path357"
         fill="#f9cb7a" />
      <path
         d="m 127.65975,431.33501 c 0,0 -3.3,-2.7 -7.5,2.1 -4.2,4.8 -4.1,88.9 9.1,99.8 13.2,10.9 13.10001,11 13.10001,11 0,0 -23.40001,-44.6 -14.70001,-112.9 z"
         id="path359"
         fill="#999999" />
      <path
         d="m 194.95975,529.53501 c 0,0 -37.3,36 -56,12 -18.7,-24 -19.9,-100.5 -11.4,-110.2 8.5,-9.7 28.8,-26.3 28.8,-26.3 0,0 7.8,81.9 38.6,124.5 z"
         id="path361"
         fill="#4c4c4c" />
      <path
         d="m 194.95975,529.53501 c 0,0 10.8,0.6 12.7,-14.5 0,0 -48.6,-74.2 -42.8,-119.7 0,0 -6.6,-5.5 -11.8,6.9 0.1,0.1 -1.1,66.2 41.9,127.3 z"
         id="path363"
         fill="#999999" />
      <path
         d="m 179.75975,307.13501 c 0,0 -52.1,124.2 36.9,223.7 0,0 0.6,-33.1 61.6,-141.5 z"
         id="path365"
         fill="#4c4c4c" />
      <path
         d="m 297.55975,380.23501 c 0,0 -90.8,142.3 -79.2,194 0,0 0.4,25.5 19.7,16.4 l 15.1,-4.2 c 0,0 24.3,-105.5 75.3,-163.6 l 50.6,59 72,-23.8 12.7,-14.5 -265.8,-221.9 c 0,0 -36.3,28.4 -12,65.5 z"
         id="path367"
         fill="#4c4c4c" />
      <path
         d="m 218.35975,574.23501 c 0,0 -37.1,-22.6 59.9,-184.9 l -98.5,-82.2 c 0,0 -2.3,-10.3 6.2,-20 l 111.6,93.1 c 0,0 -85.6,129.9 -79.2,194 z"
         id="path369"
         fill="#999999" />
      <path
         d="m 300.65975,13.735014 c 0,0 120.3,24.9 99.8,100.099996 0,0 60.2,-16.799996 99.2,-9.4 0,0 11.8,-149.599996 -199,-90.699996 z"
         id="path371"
         fill="url(#linearGradient-23)"
         style="fill:url(#linearGradient-23)" />
      <path
         d="m 3.2597482,352.73501 c 0,0 43.7999998,112.1 116.8000018,80.7 0,0 -7.7,60.7 5.8,97.1 0,0 -149.600002,34.5 -122.6000018,-177.8 z"
         id="path373"
         fill="url(#linearGradient-24)"
         style="fill:url(#linearGradient-24)" />
      <path
         d="m 399.45975,121.43501 c 0,0 -3.3,-2.7 1,-7.6 4.2,-4.8 89.4,-17.699996 102.5,-6.7 13.1,11 13.1,11 13.1,11 0,0 -48.8,-15.6 -116.6,3.3 z"
         id="path375"
         fill="#999999" />
      <path
         d="m 509.35975,171.13501 c 0,0 30.7,-41.5 3.5,-55.8 -27.2,-14.3 -104.8,-3.6 -113.3,6.1 -8.5,9.7 -22.2,31.8 -22.2,31.8 0,0 84.1,-5.2 132,17.9 z"
         id="path377"
         fill="#4c4c4c" />
      <path
         d="m 509.35975,171.13501 c 0,0 2.3,10.3 -12.7,14.5 0,0 -82.6,-35.4 -127.8,-22.8 0,0 -6.6,-5.5 5.2,-12.4 -0.1,0 66.7,-11.3 135.3,20.7 z"
         id="path379"
         fill="#999999" />
      <path
         d="m 281.75975,190.83501 c 0,0 117.8,-69.5 232.3,0.9 0,0 -33.4,5.7 -133.8,81.2 z"
         id="path381"
         fill="#4c4c4c" />
      <path
         d="m 373.95975,293.03501 c 0,0 130.1,-109.5 184.2,-106.3 0,0 25.9,-3.6 19.7,16.4 l -1.9,15.2 c 0,0 -103.1,39.8 -154.1,97.9 l 67.6,39.6 -12.9,73.1 -12.7,14.5 -265.9,-221.8 c 0,0 23.2,-39.4 64.5,-21.7 z"
         id="path383"
         fill="#4c4c4c" />
      <path
         d="m 558.15975,186.83501 c 0,0 -28.6,-32.2 -178,86.3 l -98.5,-82.2 c 0,0 -10.8,-0.6 -19.3,9 l 111.6,93.1 c 0,0 118.4,-102.5 184.2,-106.2 z"
         id="path385"
         fill="#999999" />
    </g>
  </g>
</svg>
